<?xml version="1.0" encoding="UTF-8" standalone="no"?>
<!-- Created with Inkscape (http://www.inkscape.org/) -->

<svg
   xmlns:dc="http://purl.org/dc/elements/1.1/"
   xmlns:cc="http://creativecommons.org/ns#"
   xmlns:rdf="http://www.w3.org/1999/02/22-rdf-syntax-ns#"
   xmlns:svg="http://www.w3.org/2000/svg"
   xmlns="http://www.w3.org/2000/svg"
   xmlns:sodipodi="http://sodipodi.sourceforge.net/DTD/sodipodi-0.dtd"
   xmlns:inkscape="http://www.inkscape.org/namespaces/inkscape"
   width="1766.1144"
   height="547.91998"
   id="svg4143"
   version="1.1"
   inkscape:version="0.48.3.1 r9886"
   sodipodi:docname="bricktronics_arduino_uno_mounting_plate_v4.svg">
  <defs
     id="defs4145" />
  <sodipodi:namedview
     id="base"
     pagecolor="#ffffff"
     bordercolor="#666666"
     borderopacity="1.0"
     inkscape:pageopacity="0.0"
     inkscape:pageshadow="2"
     inkscape:zoom="0.5"
     inkscape:cx="750.53678"
     inkscape:cy="-157.80301"
     inkscape:document-units="px"
     inkscape:current-layer="layer1"
     showgrid="false"
     fit-margin-top="5"
     fit-margin-left="5"
     fit-margin-right="5"
     fit-margin-bottom="5"
     inkscape:window-width="1215"
     inkscape:window-height="1000"
     inkscape:window-x="65"
     inkscape:window-y="24"
     inkscape:window-maximized="1" />
  <metadata
     id="metadata4148">
    <rdf:RDF>
      <cc:Work
         rdf:about="">
        <dc:format>image/svg+xml</dc:format>
        <dc:type
           rdf:resource="http://purl.org/dc/dcmitype/StillImage" />
        <dc:title></dc:title>
      </cc:Work>
    </rdf:RDF>
  </metadata>
  <g
     inkscape:label="Layer 1"
     inkscape:groupmode="layer"
     id="layer1"
     transform="translate(0.5942849,-2.2021864)">
    <text
       xml:space="preserve"
       style="font-size:40px;font-style:italic;font-variant:normal;font-weight:bold;font-stretch:normal;line-height:125%;letter-spacing:0px;word-spacing:0px;fill:#000000;fill-opacity:1;stroke:none;font-family:URW Chancery L;-inkscape-font-specification:URW Chancery L Bold Italic"
       x="4.2857151"
       y="36.362186"
       id="text4151"
       sodipodi:linespacing="125%"><tspan
         sodipodi:role="line"
         x="4.2857151"
         y="36.362186"
         id="tspan4157"
         style="font-style:normal;font-variant:normal;font-weight:bold;font-stretch:normal;font-family:FreeSans;-inkscape-font-specification:FreeSans Bold Italic">Arduino UNO (and compatible) mounting plate</tspan><tspan
         sodipodi:role="line"
         x="4.2857151"
         y="86.362183"
         style="font-style:normal;font-variant:normal;font-weight:bold;font-stretch:normal;font-family:FreeSans;-inkscape-font-specification:FreeSans Bold Italic"
         id="tspan4167">Version 4</tspan><tspan
         sodipodi:role="line"
         x="4.2857151"
         y="136.36218"
         style="font-style:normal;font-variant:normal;font-weight:bold;font-stretch:normal;font-family:FreeSans;-inkscape-font-specification:FreeSans Bold Italic"
         id="tspan4425">#000000 = Vector engrave (high speed)</tspan><tspan
         sodipodi:role="line"
         x="4.2857151"
         y="186.36218"
         style="font-style:normal;font-variant:normal;font-weight:bold;font-stretch:normal;font-family:FreeSans;-inkscape-font-specification:FreeSans Bold Italic"
         id="tspan4421">#FF0000 = Vector cut</tspan><tspan
         sodipodi:role="line"
         x="4.2857151"
         y="236.36218"
         style="font-style:normal;font-variant:normal;font-weight:bold;font-stretch:normal;font-family:FreeSans;-inkscape-font-specification:FreeSans Bold Italic"
         id="tspan4419" /><tspan
         sodipodi:role="line"
         x="4.2857151"
         y="286.36218"
         style="font-style:normal;font-variant:normal;font-weight:bold;font-stretch:normal;font-family:FreeSans;-inkscape-font-specification:FreeSans Bold Italic"
         id="tspan4181">Last updated: May 9, 2013</tspan><tspan
         sodipodi:role="line"
         x="4.2857151"
         y="336.36218"
         style="font-style:normal;font-variant:normal;font-weight:bold;font-stretch:normal;font-family:FreeSans;-inkscape-font-specification:FreeSans Bold Italic"
         id="tspan4175">Created by Matthew Beckler and Adam Wolf for Wayne and Layne, LLC</tspan><tspan
         sodipodi:role="line"
         x="4.2857151"
         y="386.36218"
         style="font-style:normal;font-variant:normal;font-weight:bold;font-stretch:normal;font-family:FreeSans;-inkscape-font-specification:FreeSans Bold Italic"
         id="tspan4163">http://www.wayneandlayne.com/bricktronics/</tspan><tspan
         sodipodi:role="line"
         x="4.2857151"
         y="436.36218"
         style="font-style:normal;font-variant:normal;font-weight:bold;font-stretch:normal;font-family:FreeSans;-inkscape-font-specification:FreeSans Bold Italic"
         id="tspan4173" /><tspan
         sodipodi:role="line"
         x="4.2857151"
         y="486.36218"
         style="font-style:normal;font-variant:normal;font-weight:bold;font-stretch:normal;font-family:FreeSans;-inkscape-font-specification:FreeSans Bold Italic"
         id="tspan4169">This work is licensed under a Creative Commons Attribution-ShareAlike 3.0 Unported License</tspan><tspan
         sodipodi:role="line"
         x="4.2857151"
         y="536.36218"
         style="font-style:normal;font-variant:normal;font-weight:bold;font-stretch:normal;font-family:FreeSans;-inkscape-font-specification:FreeSans Bold Italic"
         id="tspan4171">http://creativecommons.org/licenses/by-sa/3.0/</tspan></text>
    <rect
       style="fill:#0000ff;fill-opacity:1;stroke:none"
       id="rect4427"
       width="90"
       height="90"
       x="1572"
       y="72.362183" />
    <text
       sodipodi:linespacing="125%"
       id="text4937"
       y="212.36218"
       x="1489.5278"
       style="font-size:40px;font-style:italic;font-variant:normal;font-weight:bold;font-stretch:normal;line-height:125%;letter-spacing:0px;word-spacing:0px;fill:#000000;fill-opacity:1;stroke:none;font-family:URW Chancery L;-inkscape-font-specification:URW Chancery L Bold Italic"
       xml:space="preserve"><tspan
         style="font-style:normal;font-variant:normal;font-weight:bold;font-stretch:normal;font-family:FreeSans;-inkscape-font-specification:FreeSans Bold Italic"
         y="212.36218"
         x="1489.5278"
         sodipodi:role="line"
         id="tspan5055">1&quot; square for</tspan><tspan
         style="font-style:normal;font-variant:normal;font-weight:bold;font-stretch:normal;font-family:FreeSans;-inkscape-font-specification:FreeSans Bold Italic"
         y="262.36218"
         x="1489.5278"
         sodipodi:role="line"
         id="tspan5061">scaling factor</tspan><tspan
         style="font-style:normal;font-variant:normal;font-weight:bold;font-stretch:normal;font-family:FreeSans;-inkscape-font-specification:FreeSans Bold Italic"
         y="312.36218"
         x="1489.5278"
         sodipodi:role="line"
         id="tspan5057">confirmation</tspan></text>
    <g
       transform="translate(258.51685,201.42421)"
       id="g5265">
      <g
         style="stroke:#ff0000;stroke-opacity:1"
         id="g10586"
         transform="translate(559.49502,-522.77851)">
        <path
           transform="matrix(2.2448037,0,0,2.2448037,143.92762,-228.88061)"
           d="m 121.75,339.31631 c 0,1.37861 -1.11759,2.4962 -2.49619,2.4962 -1.37861,0 -2.49619,-1.11759 -2.49619,-2.4962 0,-1.3786 1.11758,-2.49619 2.49619,-2.49619 1.3786,0 2.49619,1.11759 2.49619,2.49619 z"
           sodipodi:ry="2.4961903"
           sodipodi:rx="2.4961903"
           sodipodi:cy="339.31631"
           sodipodi:cx="119.25381"
           id="path8577"
           style="fill:none;stroke:#ff0000;stroke-width:0.01578448;stroke-linecap:round;stroke-linejoin:round;stroke-miterlimit:4;stroke-opacity:1;stroke-dasharray:none;stroke-dashoffset:0"
           sodipodi:type="arc" />
        <path
           d="m 121.75,339.31631 c 0,1.37861 -1.11759,2.4962 -2.49619,2.4962 -1.37861,0 -2.49619,-1.11759 -2.49619,-2.4962 0,-1.3786 1.11758,-2.49619 2.49619,-2.49619 1.3786,0 2.49619,1.11759 2.49619,2.49619 z"
           sodipodi:ry="2.4961903"
           sodipodi:rx="2.4961903"
           sodipodi:cy="339.31631"
           sodipodi:cx="119.25381"
           id="path8579"
           style="fill:none;stroke:#ff0000;stroke-width:0.01578448;stroke-linecap:round;stroke-linejoin:round;stroke-miterlimit:4;stroke-opacity:1;stroke-dasharray:none;stroke-dashoffset:0"
           sodipodi:type="arc"
           transform="matrix(2.2448037,0,0,2.2448037,143.92762,-327.65197)" />
        <path
           transform="matrix(2.2448037,0,0,2.2448037,-35.65665,-381.52726)"
           sodipodi:type="arc"
           style="fill:none;stroke:#ff0000;stroke-width:0.01578448;stroke-linecap:round;stroke-linejoin:round;stroke-miterlimit:4;stroke-opacity:1;stroke-dasharray:none;stroke-dashoffset:0"
           id="path8581"
           sodipodi:cx="119.25381"
           sodipodi:cy="339.31631"
           sodipodi:rx="2.4961903"
           sodipodi:ry="2.4961903"
           d="m 121.75,339.31631 c 0,1.37861 -1.11759,2.4962 -2.49619,2.4962 -1.37861,0 -2.49619,-1.11759 -2.49619,-2.4962 0,-1.3786 1.11758,-2.49619 2.49619,-2.49619 1.3786,0 2.49619,1.11759 2.49619,2.49619 z" />
        <path
           sodipodi:type="arc"
           style="fill:none;stroke:#ff0000;stroke-width:0.01578448;stroke-linecap:round;stroke-linejoin:round;stroke-miterlimit:4;stroke-opacity:1;stroke-dasharray:none;stroke-dashoffset:0"
           id="path8583"
           sodipodi:cx="119.25381"
           sodipodi:cy="339.31631"
           sodipodi:rx="2.4961903"
           sodipodi:ry="2.4961903"
           d="m 121.75,339.31631 c 0,1.37861 -1.11759,2.4962 -2.49619,2.4962 -1.37861,0 -2.49619,-1.11759 -2.49619,-2.4962 0,-1.3786 1.11758,-2.49619 2.49619,-2.49619 1.3786,0 2.49619,1.11759 2.49619,2.49619 z"
           transform="matrix(2.2448037,0,0,2.2448037,-40.14626,-210.92218)" />
        <path
           transform="matrix(0,-0.25330875,0.25330875,0,107.48707,617.94423)"
           d="m 187.85715,198.07646 c 0,18.54099 -15.03044,33.57143 -33.57143,33.57143 -18.54099,0 -33.57143,-15.03044 -33.57143,-33.57143 0,-18.54099 15.03044,-33.57143 33.57143,-33.57143 18.54099,0 33.57143,15.03044 33.57143,33.57143 z"
           sodipodi:ry="33.57143"
           sodipodi:rx="33.57143"
           sodipodi:cy="198.07646"
           sodipodi:cx="154.28572"
           id="path8537"
           style="fill:none;stroke:#ff0000;stroke-width:0.13988096;stroke-miterlimit:4;stroke-opacity:1;stroke-dasharray:none"
           sodipodi:type="arc" />
        <path
           sodipodi:type="arc"
           style="fill:none;stroke:#ff0000;stroke-width:0.13988096;stroke-miterlimit:4;stroke-opacity:1;stroke-dasharray:none"
           id="path8539"
           sodipodi:cx="154.28572"
           sodipodi:cy="198.07646"
           sodipodi:rx="33.57143"
           sodipodi:ry="33.57143"
           d="m 187.85715,198.07646 c 0,18.54099 -15.03044,33.57143 -33.57143,33.57143 -18.54099,0 -33.57143,-15.03044 -33.57143,-33.57143 0,-18.54099 15.03044,-33.57143 33.57143,-33.57143 18.54099,0 33.57143,15.03044 33.57143,33.57143 z"
           transform="matrix(0,-0.25330875,0.25330875,0,107.48707,589.59778)" />
        <path
           transform="matrix(0,-0.25330875,0.25330875,0,107.48707,561.25132)"
           d="m 187.85715,198.07646 c 0,18.54099 -15.03044,33.57143 -33.57143,33.57143 -18.54099,0 -33.57143,-15.03044 -33.57143,-33.57143 0,-18.54099 15.03044,-33.57143 33.57143,-33.57143 18.54099,0 33.57143,15.03044 33.57143,33.57143 z"
           sodipodi:ry="33.57143"
           sodipodi:rx="33.57143"
           sodipodi:cy="198.07646"
           sodipodi:cx="154.28572"
           id="path8541"
           style="fill:none;stroke:#ff0000;stroke-width:0.13988096;stroke-miterlimit:4;stroke-opacity:1;stroke-dasharray:none"
           sodipodi:type="arc" />
        <path
           transform="matrix(0,-0.25330875,0.25330875,0,107.48707,532.90487)"
           d="m 187.85715,198.07646 c 0,18.54099 -15.03044,33.57143 -33.57143,33.57143 -18.54099,0 -33.57143,-15.03044 -33.57143,-33.57143 0,-18.54099 15.03044,-33.57143 33.57143,-33.57143 18.54099,0 33.57143,15.03044 33.57143,33.57143 z"
           sodipodi:ry="33.57143"
           sodipodi:rx="33.57143"
           sodipodi:cy="198.07646"
           sodipodi:cx="154.28572"
           id="path8543"
           style="fill:none;stroke:#ff0000;stroke-width:0.13988096;stroke-miterlimit:4;stroke-opacity:1;stroke-dasharray:none"
           sodipodi:type="arc" />
        <path
           sodipodi:type="arc"
           style="fill:none;stroke:#ff0000;stroke-width:0.13988096;stroke-miterlimit:4;stroke-opacity:1;stroke-dasharray:none"
           id="path8545"
           sodipodi:cx="154.28572"
           sodipodi:cy="198.07646"
           sodipodi:rx="33.57143"
           sodipodi:ry="33.57143"
           d="m 187.85715,198.07646 c 0,18.54099 -15.03044,33.57143 -33.57143,33.57143 -18.54099,0 -33.57143,-15.03044 -33.57143,-33.57143 0,-18.54099 15.03044,-33.57143 33.57143,-33.57143 18.54099,0 33.57143,15.03044 33.57143,33.57143 z"
           transform="matrix(0,-0.25330875,0.25330875,0,107.48707,504.55841)" />
        <path
           transform="matrix(0,-0.25330875,0.25330875,0,107.48707,476.21196)"
           d="m 187.85715,198.07646 c 0,18.54099 -15.03044,33.57143 -33.57143,33.57143 -18.54099,0 -33.57143,-15.03044 -33.57143,-33.57143 0,-18.54099 15.03044,-33.57143 33.57143,-33.57143 18.54099,0 33.57143,15.03044 33.57143,33.57143 z"
           sodipodi:ry="33.57143"
           sodipodi:rx="33.57143"
           sodipodi:cy="198.07646"
           sodipodi:cx="154.28572"
           id="path8547"
           style="fill:none;stroke:#ff0000;stroke-width:0.13988096;stroke-miterlimit:4;stroke-opacity:1;stroke-dasharray:none"
           sodipodi:type="arc" />
        <path
           sodipodi:type="arc"
           style="fill:none;stroke:#ff0000;stroke-width:0.13988096;stroke-miterlimit:4;stroke-opacity:1;stroke-dasharray:none"
           id="path8549"
           sodipodi:cx="154.28572"
           sodipodi:cy="198.07646"
           sodipodi:rx="33.57143"
           sodipodi:ry="33.57143"
           d="m 187.85715,198.07646 c 0,18.54099 -15.03044,33.57143 -33.57143,33.57143 -18.54099,0 -33.57143,-15.03044 -33.57143,-33.57143 0,-18.54099 15.03044,-33.57143 33.57143,-33.57143 18.54099,0 33.57143,15.03044 33.57143,33.57143 z"
           transform="matrix(0,-0.25330875,0.25330875,0,107.48707,447.8655)" />
        <path
           sodipodi:type="arc"
           style="fill:none;stroke:#ff0000;stroke-width:0.13988096;stroke-miterlimit:4;stroke-opacity:1;stroke-dasharray:none"
           id="path8551"
           sodipodi:cx="154.28572"
           sodipodi:cy="198.07646"
           sodipodi:rx="33.57143"
           sodipodi:ry="33.57143"
           d="m 187.85715,198.07646 c 0,18.54099 -15.03044,33.57143 -33.57143,33.57143 -18.54099,0 -33.57143,-15.03044 -33.57143,-33.57143 0,-18.54099 15.03044,-33.57143 33.57143,-33.57143 18.54099,0 33.57143,15.03044 33.57143,33.57143 z"
           transform="matrix(0,-0.25330875,0.25330875,0,107.48707,419.51905)" />
        <path
           transform="matrix(0,-0.25330875,0.25330875,0,107.48707,391.17259)"
           d="m 187.85715,198.07646 c 0,18.54099 -15.03044,33.57143 -33.57143,33.57143 -18.54099,0 -33.57143,-15.03044 -33.57143,-33.57143 0,-18.54099 15.03044,-33.57143 33.57143,-33.57143 18.54099,0 33.57143,15.03044 33.57143,33.57143 z"
           sodipodi:ry="33.57143"
           sodipodi:rx="33.57143"
           sodipodi:cy="198.07646"
           sodipodi:cx="154.28572"
           id="path8553"
           style="fill:none;stroke:#ff0000;stroke-width:0.13988096;stroke-miterlimit:4;stroke-opacity:1;stroke-dasharray:none"
           sodipodi:type="arc" />
        <path
           sodipodi:type="arc"
           style="fill:none;stroke:#ff0000;stroke-width:0.13988096;stroke-miterlimit:4;stroke-opacity:1;stroke-dasharray:none"
           id="path8555"
           sodipodi:cx="154.28572"
           sodipodi:cy="198.07646"
           sodipodi:rx="33.57143"
           sodipodi:ry="33.57143"
           d="m 187.85715,198.07646 c 0,18.54099 -15.03044,33.57143 -33.57143,33.57143 -18.54099,0 -33.57143,-15.03044 -33.57143,-33.57143 0,-18.54099 15.03044,-33.57143 33.57143,-33.57143 18.54099,0 33.57143,15.03044 33.57143,33.57143 z"
           transform="matrix(0,-0.25330875,0.25330875,0,390.95165,589.59778)" />
        <path
           transform="matrix(0,-0.25330875,0.25330875,0,390.95165,561.25132)"
           d="m 187.85715,198.07646 c 0,18.54099 -15.03044,33.57143 -33.57143,33.57143 -18.54099,0 -33.57143,-15.03044 -33.57143,-33.57143 0,-18.54099 15.03044,-33.57143 33.57143,-33.57143 18.54099,0 33.57143,15.03044 33.57143,33.57143 z"
           sodipodi:ry="33.57143"
           sodipodi:rx="33.57143"
           sodipodi:cy="198.07646"
           sodipodi:cx="154.28572"
           id="path8557"
           style="fill:none;stroke:#ff0000;stroke-width:0.13988096;stroke-miterlimit:4;stroke-opacity:1;stroke-dasharray:none"
           sodipodi:type="arc" />
        <path
           transform="matrix(0,-0.25330875,0.25330875,0,390.95165,532.90487)"
           d="m 187.85715,198.07646 c 0,18.54099 -15.03044,33.57143 -33.57143,33.57143 -18.54099,0 -33.57143,-15.03044 -33.57143,-33.57143 0,-18.54099 15.03044,-33.57143 33.57143,-33.57143 18.54099,0 33.57143,15.03044 33.57143,33.57143 z"
           sodipodi:ry="33.57143"
           sodipodi:rx="33.57143"
           sodipodi:cy="198.07646"
           sodipodi:cx="154.28572"
           id="path8559"
           style="fill:none;stroke:#ff0000;stroke-width:0.13988096;stroke-miterlimit:4;stroke-opacity:1;stroke-dasharray:none"
           sodipodi:type="arc" />
        <path
           sodipodi:type="arc"
           style="fill:none;stroke:#ff0000;stroke-width:0.13988096;stroke-miterlimit:4;stroke-opacity:1;stroke-dasharray:none"
           id="path8561"
           sodipodi:cx="154.28572"
           sodipodi:cy="198.07646"
           sodipodi:rx="33.57143"
           sodipodi:ry="33.57143"
           d="m 187.85715,198.07646 c 0,18.54099 -15.03044,33.57143 -33.57143,33.57143 -18.54099,0 -33.57143,-15.03044 -33.57143,-33.57143 0,-18.54099 15.03044,-33.57143 33.57143,-33.57143 18.54099,0 33.57143,15.03044 33.57143,33.57143 z"
           transform="matrix(0,-0.25330875,0.25330875,0,390.95165,504.55841)" />
        <path
           transform="matrix(0,-0.25330875,0.25330875,0,390.95165,476.21196)"
           d="m 187.85715,198.07646 c 0,18.54099 -15.03044,33.57143 -33.57143,33.57143 -18.54099,0 -33.57143,-15.03044 -33.57143,-33.57143 0,-18.54099 15.03044,-33.57143 33.57143,-33.57143 18.54099,0 33.57143,15.03044 33.57143,33.57143 z"
           sodipodi:ry="33.57143"
           sodipodi:rx="33.57143"
           sodipodi:cy="198.07646"
           sodipodi:cx="154.28572"
           id="path8563"
           style="fill:none;stroke:#ff0000;stroke-width:0.13988096;stroke-miterlimit:4;stroke-opacity:1;stroke-dasharray:none"
           sodipodi:type="arc" />
        <path
           sodipodi:type="arc"
           style="fill:none;stroke:#ff0000;stroke-width:0.13988096;stroke-miterlimit:4;stroke-opacity:1;stroke-dasharray:none"
           id="path8565"
           sodipodi:cx="154.28572"
           sodipodi:cy="198.07646"
           sodipodi:rx="33.57143"
           sodipodi:ry="33.57143"
           d="m 187.85715,198.07646 c 0,18.54099 -15.03044,33.57143 -33.57143,33.57143 -18.54099,0 -33.57143,-15.03044 -33.57143,-33.57143 0,-18.54099 15.03044,-33.57143 33.57143,-33.57143 18.54099,0 33.57143,15.03044 33.57143,33.57143 z"
           transform="matrix(0,-0.25330875,0.25330875,0,390.95165,447.8655)" />
        <path
           sodipodi:type="arc"
           style="fill:none;stroke:#ff0000;stroke-width:0.13988096;stroke-miterlimit:4;stroke-opacity:1;stroke-dasharray:none"
           id="path8567"
           sodipodi:cx="154.28572"
           sodipodi:cy="198.07646"
           sodipodi:rx="33.57143"
           sodipodi:ry="33.57143"
           d="m 187.85715,198.07646 c 0,18.54099 -15.03044,33.57143 -33.57143,33.57143 -18.54099,0 -33.57143,-15.03044 -33.57143,-33.57143 0,-18.54099 15.03044,-33.57143 33.57143,-33.57143 18.54099,0 33.57143,15.03044 33.57143,33.57143 z"
           transform="matrix(0,-0.25330875,0.25330875,0,390.95165,419.51905)" />
        <path
           sodipodi:type="arc"
           style="fill:none;stroke:#ff0000;stroke-width:0.13988096;stroke-miterlimit:4;stroke-opacity:1;stroke-dasharray:none"
           id="path8593"
           sodipodi:cx="154.28572"
           sodipodi:cy="198.07646"
           sodipodi:rx="33.57143"
           sodipodi:ry="33.57143"
           d="m 187.85715,198.07646 c 0,18.54099 -15.03044,33.57143 -33.57143,33.57143 -18.54099,0 -33.57143,-15.03044 -33.57143,-33.57143 0,-18.54099 15.03044,-33.57143 33.57143,-33.57143 18.54099,0 33.57143,15.03044 33.57143,33.57143 z"
           transform="matrix(-0.25330875,1.0135064e-8,-1.0135064e-8,-0.25330875,423.51515,402.26518)" />
        <path
           transform="matrix(-0.25330875,1.0135064e-8,-1.0135064e-8,-0.25330875,395.1687,402.26517)"
           d="m 187.85715,198.07646 c 0,18.54099 -15.03044,33.57143 -33.57143,33.57143 -18.54099,0 -33.57143,-15.03044 -33.57143,-33.57143 0,-18.54099 15.03044,-33.57143 33.57143,-33.57143 18.54099,0 33.57143,15.03044 33.57143,33.57143 z"
           sodipodi:ry="33.57143"
           sodipodi:rx="33.57143"
           sodipodi:cy="198.07646"
           sodipodi:cx="154.28572"
           id="path8595"
           style="fill:none;stroke:#ff0000;stroke-width:0.13988096;stroke-miterlimit:4;stroke-opacity:1;stroke-dasharray:none"
           sodipodi:type="arc" />
        <path
           sodipodi:type="arc"
           style="fill:none;stroke:#ff0000;stroke-width:0.13988096;stroke-miterlimit:4;stroke-opacity:1;stroke-dasharray:none"
           id="path8597"
           sodipodi:cx="154.28572"
           sodipodi:cy="198.07646"
           sodipodi:rx="33.57143"
           sodipodi:ry="33.57143"
           d="m 187.85715,198.07646 c 0,18.54099 -15.03044,33.57143 -33.57143,33.57143 -18.54099,0 -33.57143,-15.03044 -33.57143,-33.57143 0,-18.54099 15.03044,-33.57143 33.57143,-33.57143 18.54099,0 33.57143,15.03044 33.57143,33.57143 z"
           transform="matrix(-0.25330875,1.0135064e-8,-1.0135064e-8,-0.25330875,366.82223,402.26517)" />
        <path
           sodipodi:type="arc"
           style="fill:none;stroke:#ff0000;stroke-width:0.13988096;stroke-miterlimit:4;stroke-opacity:1;stroke-dasharray:none"
           id="path8599"
           sodipodi:cx="154.28572"
           sodipodi:cy="198.07646"
           sodipodi:rx="33.57143"
           sodipodi:ry="33.57143"
           d="m 187.85715,198.07646 c 0,18.54099 -15.03044,33.57143 -33.57143,33.57143 -18.54099,0 -33.57143,-15.03044 -33.57143,-33.57143 0,-18.54099 15.03044,-33.57143 33.57143,-33.57143 18.54099,0 33.57143,15.03044 33.57143,33.57143 z"
           transform="matrix(-0.25330875,1.0135064e-8,-1.0135064e-8,-0.25330875,338.47579,402.26517)" />
        <path
           transform="matrix(-0.25330875,1.0135064e-8,-1.0135064e-8,-0.25330875,310.12931,402.26517)"
           d="m 187.85715,198.07646 c 0,18.54099 -15.03044,33.57143 -33.57143,33.57143 -18.54099,0 -33.57143,-15.03044 -33.57143,-33.57143 0,-18.54099 15.03044,-33.57143 33.57143,-33.57143 18.54099,0 33.57143,15.03044 33.57143,33.57143 z"
           sodipodi:ry="33.57143"
           sodipodi:rx="33.57143"
           sodipodi:cy="198.07646"
           sodipodi:cx="154.28572"
           id="path8601"
           style="fill:none;stroke:#ff0000;stroke-width:0.13988096;stroke-miterlimit:4;stroke-opacity:1;stroke-dasharray:none"
           sodipodi:type="arc" />
        <path
           sodipodi:type="arc"
           style="fill:none;stroke:#ff0000;stroke-width:0.13988096;stroke-miterlimit:4;stroke-opacity:1;stroke-dasharray:none"
           id="path8603"
           sodipodi:cx="154.28572"
           sodipodi:cy="198.07646"
           sodipodi:rx="33.57143"
           sodipodi:ry="33.57143"
           d="m 187.85715,198.07646 c 0,18.54099 -15.03044,33.57143 -33.57143,33.57143 -18.54099,0 -33.57143,-15.03044 -33.57143,-33.57143 0,-18.54099 15.03044,-33.57143 33.57143,-33.57143 18.54099,0 33.57143,15.03044 33.57143,33.57143 z"
           transform="matrix(-0.25330875,1.0135064e-8,-1.0135064e-8,-0.25330875,281.78287,402.26517)" />
        <path
           transform="matrix(-0.25330875,1.0135064e-8,-1.0135064e-8,-0.25330875,253.43643,402.26517)"
           d="m 187.85715,198.07646 c 0,18.54099 -15.03044,33.57143 -33.57143,33.57143 -18.54099,0 -33.57143,-15.03044 -33.57143,-33.57143 0,-18.54099 15.03044,-33.57143 33.57143,-33.57143 18.54099,0 33.57143,15.03044 33.57143,33.57143 z"
           sodipodi:ry="33.57143"
           sodipodi:rx="33.57143"
           sodipodi:cy="198.07646"
           sodipodi:cx="154.28572"
           id="path8605"
           style="fill:none;stroke:#ff0000;stroke-width:0.13988096;stroke-miterlimit:4;stroke-opacity:1;stroke-dasharray:none"
           sodipodi:type="arc" />
        <path
           transform="matrix(-0.25330875,1.0135064e-8,-1.0135064e-8,-0.25330875,225.08997,402.26517)"
           d="m 187.85715,198.07646 c 0,18.54099 -15.03044,33.57143 -33.57143,33.57143 -18.54099,0 -33.57143,-15.03044 -33.57143,-33.57143 0,-18.54099 15.03044,-33.57143 33.57143,-33.57143 18.54099,0 33.57143,15.03044 33.57143,33.57143 z"
           sodipodi:ry="33.57143"
           sodipodi:rx="33.57143"
           sodipodi:cy="198.07646"
           sodipodi:cx="154.28572"
           id="path8607"
           style="fill:none;stroke:#ff0000;stroke-width:0.13988096;stroke-miterlimit:4;stroke-opacity:1;stroke-dasharray:none"
           sodipodi:type="arc" />
        <path
           sodipodi:type="arc"
           style="fill:none;stroke:#ff0000;stroke-width:0.13988096;stroke-miterlimit:4;stroke-opacity:1;stroke-dasharray:none"
           id="path8609"
           sodipodi:cx="154.28572"
           sodipodi:cy="198.07646"
           sodipodi:rx="33.57143"
           sodipodi:ry="33.57143"
           d="m 187.85715,198.07646 c 0,18.54099 -15.03044,33.57143 -33.57143,33.57143 -18.54099,0 -33.57143,-15.03044 -33.57143,-33.57143 0,-18.54099 15.03044,-33.57143 33.57143,-33.57143 18.54099,0 33.57143,15.03044 33.57143,33.57143 z"
           transform="matrix(-0.25330875,1.0135064e-8,-1.0135064e-8,-0.25330875,480.20808,402.26518)" />
        <path
           sodipodi:type="arc"
           style="fill:none;stroke:#ff0000;stroke-width:0.13988096;stroke-miterlimit:4;stroke-opacity:1;stroke-dasharray:none"
           id="path8611"
           sodipodi:cx="154.28572"
           sodipodi:cy="198.07646"
           sodipodi:rx="33.57143"
           sodipodi:ry="33.57143"
           d="m 187.85715,198.07646 c 0,18.54099 -15.03044,33.57143 -33.57143,33.57143 -18.54099,0 -33.57143,-15.03044 -33.57143,-33.57143 0,-18.54099 15.03044,-33.57143 33.57143,-33.57143 18.54099,0 33.57143,15.03044 33.57143,33.57143 z"
           transform="matrix(-0.25330875,1.0135064e-8,-1.0135064e-8,-0.25330875,451.86162,402.26518)" />
        <path
           transform="matrix(-0.25330875,1.0135064e-8,-1.0135064e-8,-0.25330875,423.51515,629.03681)"
           d="m 187.85715,198.07646 c 0,18.54099 -15.03044,33.57143 -33.57143,33.57143 -18.54099,0 -33.57143,-15.03044 -33.57143,-33.57143 0,-18.54099 15.03044,-33.57143 33.57143,-33.57143 18.54099,0 33.57143,15.03044 33.57143,33.57143 z"
           sodipodi:ry="33.57143"
           sodipodi:rx="33.57143"
           sodipodi:cy="198.07646"
           sodipodi:cx="154.28572"
           id="path8613"
           style="fill:none;stroke:#ff0000;stroke-width:0.13988096;stroke-miterlimit:4;stroke-opacity:1;stroke-dasharray:none"
           sodipodi:type="arc" />
        <path
           sodipodi:type="arc"
           style="fill:none;stroke:#ff0000;stroke-width:0.13988096;stroke-miterlimit:4;stroke-opacity:1;stroke-dasharray:none"
           id="path8615"
           sodipodi:cx="154.28572"
           sodipodi:cy="198.07646"
           sodipodi:rx="33.57143"
           sodipodi:ry="33.57143"
           d="m 187.85715,198.07646 c 0,18.54099 -15.03044,33.57143 -33.57143,33.57143 -18.54099,0 -33.57143,-15.03044 -33.57143,-33.57143 0,-18.54099 15.03044,-33.57143 33.57143,-33.57143 18.54099,0 33.57143,15.03044 33.57143,33.57143 z"
           transform="matrix(-0.25330875,1.0135064e-8,-1.0135064e-8,-0.25330875,395.1687,629.03681)" />
        <path
           transform="matrix(-0.25330875,1.0135064e-8,-1.0135064e-8,-0.25330875,366.82223,629.03681)"
           d="m 187.85715,198.07646 c 0,18.54099 -15.03044,33.57143 -33.57143,33.57143 -18.54099,0 -33.57143,-15.03044 -33.57143,-33.57143 0,-18.54099 15.03044,-33.57143 33.57143,-33.57143 18.54099,0 33.57143,15.03044 33.57143,33.57143 z"
           sodipodi:ry="33.57143"
           sodipodi:rx="33.57143"
           sodipodi:cy="198.07646"
           sodipodi:cx="154.28572"
           id="path8617"
           style="fill:none;stroke:#ff0000;stroke-width:0.13988096;stroke-miterlimit:4;stroke-opacity:1;stroke-dasharray:none"
           sodipodi:type="arc" />
        <path
           transform="matrix(-0.25330875,1.0135064e-8,-1.0135064e-8,-0.25330875,338.47579,629.03681)"
           d="m 187.85715,198.07646 c 0,18.54099 -15.03044,33.57143 -33.57143,33.57143 -18.54099,0 -33.57143,-15.03044 -33.57143,-33.57143 0,-18.54099 15.03044,-33.57143 33.57143,-33.57143 18.54099,0 33.57143,15.03044 33.57143,33.57143 z"
           sodipodi:ry="33.57143"
           sodipodi:rx="33.57143"
           sodipodi:cy="198.07646"
           sodipodi:cx="154.28572"
           id="path8619"
           style="fill:none;stroke:#ff0000;stroke-width:0.13988096;stroke-miterlimit:4;stroke-opacity:1;stroke-dasharray:none"
           sodipodi:type="arc" />
        <path
           sodipodi:type="arc"
           style="fill:none;stroke:#ff0000;stroke-width:0.13988096;stroke-miterlimit:4;stroke-opacity:1;stroke-dasharray:none"
           id="path8621"
           sodipodi:cx="154.28572"
           sodipodi:cy="198.07646"
           sodipodi:rx="33.57143"
           sodipodi:ry="33.57143"
           d="m 187.85715,198.07646 c 0,18.54099 -15.03044,33.57143 -33.57143,33.57143 -18.54099,0 -33.57143,-15.03044 -33.57143,-33.57143 0,-18.54099 15.03044,-33.57143 33.57143,-33.57143 18.54099,0 33.57143,15.03044 33.57143,33.57143 z"
           transform="matrix(-0.25330875,1.0135064e-8,-1.0135064e-8,-0.25330875,310.12931,629.03681)" />
        <path
           transform="matrix(-0.25330875,1.0135064e-8,-1.0135064e-8,-0.25330875,281.78287,629.03681)"
           d="m 187.85715,198.07646 c 0,18.54099 -15.03044,33.57143 -33.57143,33.57143 -18.54099,0 -33.57143,-15.03044 -33.57143,-33.57143 0,-18.54099 15.03044,-33.57143 33.57143,-33.57143 18.54099,0 33.57143,15.03044 33.57143,33.57143 z"
           sodipodi:ry="33.57143"
           sodipodi:rx="33.57143"
           sodipodi:cy="198.07646"
           sodipodi:cx="154.28572"
           id="path8623"
           style="fill:none;stroke:#ff0000;stroke-width:0.13988096;stroke-miterlimit:4;stroke-opacity:1;stroke-dasharray:none"
           sodipodi:type="arc" />
        <path
           sodipodi:type="arc"
           style="fill:none;stroke:#ff0000;stroke-width:0.13988096;stroke-miterlimit:4;stroke-opacity:1;stroke-dasharray:none"
           id="path8625"
           sodipodi:cx="154.28572"
           sodipodi:cy="198.07646"
           sodipodi:rx="33.57143"
           sodipodi:ry="33.57143"
           d="m 187.85715,198.07646 c 0,18.54099 -15.03044,33.57143 -33.57143,33.57143 -18.54099,0 -33.57143,-15.03044 -33.57143,-33.57143 0,-18.54099 15.03044,-33.57143 33.57143,-33.57143 18.54099,0 33.57143,15.03044 33.57143,33.57143 z"
           transform="matrix(-0.25330875,1.0135064e-8,-1.0135064e-8,-0.25330875,253.43643,629.03681)" />
        <path
           sodipodi:type="arc"
           style="fill:none;stroke:#ff0000;stroke-width:0.13988096;stroke-miterlimit:4;stroke-opacity:1;stroke-dasharray:none"
           id="path8627"
           sodipodi:cx="154.28572"
           sodipodi:cy="198.07646"
           sodipodi:rx="33.57143"
           sodipodi:ry="33.57143"
           d="m 187.85715,198.07646 c 0,18.54099 -15.03044,33.57143 -33.57143,33.57143 -18.54099,0 -33.57143,-15.03044 -33.57143,-33.57143 0,-18.54099 15.03044,-33.57143 33.57143,-33.57143 18.54099,0 33.57143,15.03044 33.57143,33.57143 z"
           transform="matrix(-0.25330875,1.0135064e-8,-1.0135064e-8,-0.25330875,225.08997,629.03681)" />
        <path
           transform="matrix(-0.25330875,1.0135064e-8,-1.0135064e-8,-0.25330875,451.86162,629.03681)"
           d="m 187.85715,198.07646 c 0,18.54099 -15.03044,33.57143 -33.57143,33.57143 -18.54099,0 -33.57143,-15.03044 -33.57143,-33.57143 0,-18.54099 15.03044,-33.57143 33.57143,-33.57143 18.54099,0 33.57143,15.03044 33.57143,33.57143 z"
           sodipodi:ry="33.57143"
           sodipodi:rx="33.57143"
           sodipodi:cy="198.07646"
           sodipodi:cx="154.28572"
           id="path8629"
           style="fill:none;stroke:#ff0000;stroke-width:0.13988096;stroke-miterlimit:4;stroke-opacity:1;stroke-dasharray:none"
           sodipodi:type="arc" />
        <path
           sodipodi:type="arc"
           style="fill:none;stroke:#ff0000;stroke-width:0.13988096;stroke-miterlimit:4;stroke-opacity:1;stroke-dasharray:none"
           id="path8631"
           sodipodi:cx="154.28572"
           sodipodi:cy="198.07646"
           sodipodi:rx="33.57143"
           sodipodi:ry="33.57143"
           d="m 187.85715,198.07646 c 0,18.54099 -15.03044,33.57143 -33.57143,33.57143 -18.54099,0 -33.57143,-15.03044 -33.57143,-33.57143 0,-18.54099 15.03044,-33.57143 33.57143,-33.57143 18.54099,0 33.57143,15.03044 33.57143,33.57143 z"
           transform="matrix(-0.25330875,1.0135064e-8,-1.0135064e-8,-0.25330875,480.20808,629.03681)" />
        <rect
           rx="8.5039349"
           ry="8.5039349"
           y="337.58673"
           x="143.15762"
           height="255.77948"
           width="312.47244"
           id="rect10001"
           style="fill:none;stroke:#ff0000;stroke-width:0.035;stroke-linecap:round;stroke-linejoin:round;stroke-miterlimit:4;stroke-opacity:1;stroke-dasharray:none;stroke-dashoffset:0" />
      </g>
      <g
         style="stroke:#000000;stroke-opacity:1"
         transform="translate(340.2842,-36.006023)"
         id="g4871">
        <path
           inkscape:connector-curvature="0"
           id="path8575"
           d="m 397.22642,-117.07236 a 1.50015,1.50015 0 0 0 -1.34375,1.5 l 0,188.5625 a 1.50015,1.50015 0 0 0 1.5,1.5 l 233.46875,0 a 1.50015,1.50015 0 0 0 1.5,-1.5 l 0,-8.375 8.53125,-8.53125 a 1.50015,1.50015 0 0 0 0.4375,-1.0625 l 0,-116.71875 a 1.50015,1.50015 0 0 0 -0.4375,-1.0625 l -8.53125,-8.5625 0,-39.78125 a 1.50015,1.50015 0 0 0 -0.4375,-1.0625 l -4.5,-4.46875 a 1.50015,1.50015 0 0 0 -1.0625,-0.4375 l -228.96875,0 a 1.50015,1.50015 0 0 0 -0.15625,0 z m 1.65625,3 226.84375,0 3.625,3.59375 0,39.78125 a 1.50015,1.50015 0 0 0 0.4375,1.0625 l 8.53125,8.5625 0,115.46875 -8.53125,8.53125 a 1.50015,1.50015 0 0 0 -0.4375,1.0625 l 0,7.5 -230.46875,0 0,-185.5625 z"
           style="font-size:medium;font-style:normal;font-variant:normal;font-weight:normal;font-stretch:normal;text-indent:0;text-align:start;text-decoration:none;line-height:normal;letter-spacing:normal;word-spacing:normal;text-transform:none;direction:ltr;block-progression:tb;writing-mode:lr-tb;text-anchor:start;baseline-shift:baseline;color:#000000;fill:none;stroke:#000000;stroke-width:0.035;stroke-miterlimit:4;stroke-opacity:1;stroke-dasharray:none;marker:none;visibility:visible;display:inline;overflow:visible;enable-background:accumulate;font-family:Sans;-inkscape-font-specification:Sans" />
        <path
           id="path4389-1-3-2"
           d="m 408.16995,14.36668 c -2.985,0 -5.4048,2.41981 -5.4048,5.40476 l 0,43.23808 c 0,2.985 2.4198,5.4048 5.4048,5.4048 l 21.619,0 c 2.985,0 5.4048,-2.4198 5.4048,-5.4048 l 0,-4.2741 0,-1.1306 0,-16.2143 c 0,-2.985 -2.4198,-5.40479 -5.4048,-5.40479 l -16.2142,0 0,-16.21429 c 0,-2.98495 -2.4198,-5.40476 -5.4048,-5.40476 z m 0,1.3512 c 2.2387,0 4.0536,1.81483 4.0536,4.05356 0,2.23873 -1.8149,4.05358 -4.0536,4.05358 -2.2387,0 -4.0536,-1.81485 -4.0536,-4.05358 0,-2.23873 1.8149,-4.05356 4.0536,-4.05356 z m 0,10.80951 c 2.2387,0 4.0536,1.81485 4.0536,4.05358 0,2.23872 -1.8149,4.05357 -4.0536,4.05357 -2.2387,0 -4.0536,-1.81485 -4.0536,-4.05357 0,-2.23873 1.8149,-4.05358 4.0536,-4.05358 z m 0,10.80953 c 2.2387,0 4.0536,1.8148 4.0536,4.0536 0,2.2387 -1.8149,4.0536 -4.0536,4.0536 -2.2387,0 -4.0536,-1.8149 -4.0536,-4.0536 0,-2.2388 1.8149,-4.0536 4.0536,-4.0536 z m 10.8095,0 c 2.2388,0 4.0536,1.8148 4.0536,4.0536 0,2.2387 -1.8148,4.0536 -4.0536,4.0536 -2.2387,0 -4.0535,-1.8149 -4.0535,-4.0536 0,-2.2388 1.8148,-4.0536 4.0535,-4.0536 z m 10.8095,0 c 2.2388,0 4.0536,1.8148 4.0536,4.0536 0,2.2387 -1.8148,4.0536 -4.0536,4.0536 -2.2387,0 -4.0535,-1.8149 -4.0535,-4.0536 0,-2.2388 1.8148,-4.0536 4.0535,-4.0536 z m -16.2142,9.4583 10.8095,0 0,10.8096 -10.8095,0 z m -5.4048,1.3512 c 2.2387,0 4.0536,1.8149 4.0536,4.0536 0,2.2387 -1.8149,4.0536 -4.0536,4.0536 -2.2387,0 -4.0536,-1.8149 -4.0536,-4.0536 0,-2.2387 1.8149,-4.0536 4.0536,-4.0536 z m 21.619,0 c 2.2388,0 4.0536,1.8149 4.0536,4.0536 0,2.2387 -1.8148,4.0536 -4.0536,4.0536 -2.2387,0 -4.0535,-1.8149 -4.0535,-4.0536 0,-2.2387 1.8148,-4.0536 4.0535,-4.0536 z m -21.619,10.8096 c 2.2387,0 4.0536,1.8148 4.0536,4.0535 0,2.2387 -1.8149,4.0536 -4.0536,4.0536 -2.2387,0 -4.0536,-1.8149 -4.0536,-4.0536 0,-2.2387 1.8149,-4.0535 4.0536,-4.0535 z m 10.8095,0 c 2.2388,0 4.0536,1.8148 4.0536,4.0535 0,2.2387 -1.8148,4.0536 -4.0536,4.0536 -2.2387,0 -4.0535,-1.8149 -4.0535,-4.0536 0,-2.2387 1.8148,-4.0535 4.0535,-4.0535 z m 10.8095,0 c 2.2388,0 4.0536,1.8148 4.0536,4.0535 0,2.2387 -1.8148,4.0536 -4.0536,4.0536 -2.2387,0 -4.0535,-1.8149 -4.0535,-4.0536 0,-2.2387 1.8148,-4.0535 4.0535,-4.0535 z"
           style="fill:none;stroke:#000000;stroke-width:0.035;stroke-miterlimit:4;stroke-opacity:1;stroke-dasharray:none"
           inkscape:connector-curvature="0"
           sodipodi:nodetypes="ssssssccsscssssssssssssssssssssssssssscccccsssssssssssssssssssssssss" />
        <path
           d="m 463.6377,66.957085 -2.54,0 -4.92,-14.58 3.02,0 3.24,10.98 3.18,-10.98 3.02,0 -5,14.58"
           style="font-size:20px;font-style:normal;font-variant:normal;font-weight:bold;font-stretch:normal;line-height:125%;letter-spacing:0px;word-spacing:0px;fill:none;stroke:#000000;stroke-width:0.035;stroke-miterlimit:4;stroke-opacity:1;stroke-dasharray:none;font-family:FreeSans;-inkscape-font-specification:Sans Bold"
           id="path4475-8"
           inkscape:connector-curvature="0" />
        <path
           d="m 479.49707,61.497085 0,2.32 -1.48,0 0,3.14 -2.8,0 0,-3.14 -5.68,0 0,-2.36 5.18,-8.68 3.3,0 0,8.72 1.48,0 m -4.28,0 0,-6.06 -3.7,6.06 3.7,0"
           style="font-size:20px;font-style:normal;font-variant:normal;font-weight:bold;font-stretch:normal;line-height:125%;letter-spacing:0px;word-spacing:0px;fill:none;stroke:#000000;stroke-width:0.035;stroke-miterlimit:4;stroke-opacity:1;stroke-dasharray:none;font-family:FreeSans;-inkscape-font-specification:Sans Bold"
           id="path4477-7"
           inkscape:connector-curvature="0" />
      </g>
    </g>
  </g>
</svg>
