<?xml version="1.0" encoding="UTF-8" standalone="no"?>
<!-- Created with Inkscape (http://www.inkscape.org/) -->

<svg
   xmlns:dc="http://purl.org/dc/elements/1.1/"
   xmlns:cc="http://creativecommons.org/ns#"
   xmlns:rdf="http://www.w3.org/1999/02/22-rdf-syntax-ns#"
   xmlns:svg="http://www.w3.org/2000/svg"
   xmlns="http://www.w3.org/2000/svg"
   xmlns:sodipodi="http://sodipodi.sourceforge.net/DTD/sodipodi-0.dtd"
   xmlns:inkscape="http://www.inkscape.org/namespaces/inkscape"
   width="1766.1144"
   height="547.91998"
   id="svg4143"
   version="1.1"
   inkscape:version="0.48.3.1 r9886"
   sodipodi:docname="bricktronics_arduino_mega_mounting_plate_v4.svg">
  <defs
     id="defs4145" />
  <sodipodi:namedview
     id="base"
     pagecolor="#ffffff"
     bordercolor="#666666"
     borderopacity="1.0"
     inkscape:pageopacity="0.0"
     inkscape:pageshadow="2"
     inkscape:zoom="0.5"
     inkscape:cx="750.53678"
     inkscape:cy="-157.80301"
     inkscape:document-units="px"
     inkscape:current-layer="layer1"
     showgrid="false"
     fit-margin-top="5"
     fit-margin-left="5"
     fit-margin-right="5"
     fit-margin-bottom="5"
     inkscape:window-width="1215"
     inkscape:window-height="1000"
     inkscape:window-x="65"
     inkscape:window-y="24"
     inkscape:window-maximized="1" />
  <metadata
     id="metadata4148">
    <rdf:RDF>
      <cc:Work
         rdf:about="">
        <dc:format>image/svg+xml</dc:format>
        <dc:type
           rdf:resource="http://purl.org/dc/dcmitype/StillImage" />
        <dc:title></dc:title>
      </cc:Work>
    </rdf:RDF>
  </metadata>
  <g
     inkscape:label="Layer 1"
     inkscape:groupmode="layer"
     id="layer1"
     transform="translate(0.5942849,-2.2021864)">
    <text
       xml:space="preserve"
       style="font-size:40px;font-style:italic;font-variant:normal;font-weight:bold;font-stretch:normal;line-height:125%;letter-spacing:0px;word-spacing:0px;fill:#000000;fill-opacity:1;stroke:none;font-family:URW Chancery L;-inkscape-font-specification:URW Chancery L Bold Italic"
       x="4.2857151"
       y="36.362186"
       id="text4151"
       sodipodi:linespacing="125%"><tspan
         sodipodi:role="line"
         x="4.2857151"
         y="36.362186"
         id="tspan4157"
         style="font-style:normal;font-variant:normal;font-weight:bold;font-stretch:normal;font-family:FreeSans;-inkscape-font-specification:FreeSans Bold Italic">Arduino Mega 2560 (and compatible) mounting plate</tspan><tspan
         sodipodi:role="line"
         x="4.2857151"
         y="86.362183"
         style="font-style:normal;font-variant:normal;font-weight:bold;font-stretch:normal;font-family:FreeSans;-inkscape-font-specification:FreeSans Bold Italic"
         id="tspan4167">Version 4</tspan><tspan
         sodipodi:role="line"
         x="4.2857151"
         y="136.36218"
         style="font-style:normal;font-variant:normal;font-weight:bold;font-stretch:normal;font-family:FreeSans;-inkscape-font-specification:FreeSans Bold Italic"
         id="tspan4425">#000000 = Vector engrave (high speed)</tspan><tspan
         sodipodi:role="line"
         x="4.2857151"
         y="186.36218"
         style="font-style:normal;font-variant:normal;font-weight:bold;font-stretch:normal;font-family:FreeSans;-inkscape-font-specification:FreeSans Bold Italic"
         id="tspan4421">#FF0000 = Vector cut</tspan><tspan
         sodipodi:role="line"
         x="4.2857151"
         y="236.36218"
         style="font-style:normal;font-variant:normal;font-weight:bold;font-stretch:normal;font-family:FreeSans;-inkscape-font-specification:FreeSans Bold Italic"
         id="tspan4419" /><tspan
         sodipodi:role="line"
         x="4.2857151"
         y="286.36218"
         style="font-style:normal;font-variant:normal;font-weight:bold;font-stretch:normal;font-family:FreeSans;-inkscape-font-specification:FreeSans Bold Italic"
         id="tspan4181">Last updated: May 9, 2013</tspan><tspan
         sodipodi:role="line"
         x="4.2857151"
         y="336.36218"
         style="font-style:normal;font-variant:normal;font-weight:bold;font-stretch:normal;font-family:FreeSans;-inkscape-font-specification:FreeSans Bold Italic"
         id="tspan4175">Created by Matthew Beckler and Adam Wolf for Wayne and Layne, LLC</tspan><tspan
         sodipodi:role="line"
         x="4.2857151"
         y="386.36218"
         style="font-style:normal;font-variant:normal;font-weight:bold;font-stretch:normal;font-family:FreeSans;-inkscape-font-specification:FreeSans Bold Italic"
         id="tspan4163">http://www.wayneandlayne.com/bricktronics/</tspan><tspan
         sodipodi:role="line"
         x="4.2857151"
         y="436.36218"
         style="font-style:normal;font-variant:normal;font-weight:bold;font-stretch:normal;font-family:FreeSans;-inkscape-font-specification:FreeSans Bold Italic"
         id="tspan4173" /><tspan
         sodipodi:role="line"
         x="4.2857151"
         y="486.36218"
         style="font-style:normal;font-variant:normal;font-weight:bold;font-stretch:normal;font-family:FreeSans;-inkscape-font-specification:FreeSans Bold Italic"
         id="tspan4169">This work is licensed under a Creative Commons Attribution-ShareAlike 3.0 Unported License</tspan><tspan
         sodipodi:role="line"
         x="4.2857151"
         y="536.36218"
         style="font-style:normal;font-variant:normal;font-weight:bold;font-stretch:normal;font-family:FreeSans;-inkscape-font-specification:FreeSans Bold Italic"
         id="tspan4171">http://creativecommons.org/licenses/by-sa/3.0/</tspan></text>
    <rect
       style="fill:#0000ff;fill-opacity:1;stroke:none"
       id="rect4427"
       width="90"
       height="90"
       x="1572"
       y="72.362183" />
    <text
       sodipodi:linespacing="125%"
       id="text4937"
       y="212.36218"
       x="1489.5278"
       style="font-size:40px;font-style:italic;font-variant:normal;font-weight:bold;font-stretch:normal;line-height:125%;letter-spacing:0px;word-spacing:0px;fill:#000000;fill-opacity:1;stroke:none;font-family:URW Chancery L;-inkscape-font-specification:URW Chancery L Bold Italic"
       xml:space="preserve"><tspan
         style="font-style:normal;font-variant:normal;font-weight:bold;font-stretch:normal;font-family:FreeSans;-inkscape-font-specification:FreeSans Bold Italic"
         y="212.36218"
         x="1489.5278"
         sodipodi:role="line"
         id="tspan5055">1&quot; square for</tspan><tspan
         style="font-style:normal;font-variant:normal;font-weight:bold;font-stretch:normal;font-family:FreeSans;-inkscape-font-specification:FreeSans Bold Italic"
         y="262.36218"
         x="1489.5278"
         sodipodi:role="line"
         id="tspan5061">scaling factor</tspan><tspan
         style="font-style:normal;font-variant:normal;font-weight:bold;font-stretch:normal;font-family:FreeSans;-inkscape-font-specification:FreeSans Bold Italic"
         y="312.36218"
         x="1489.5278"
         sodipodi:role="line"
         id="tspan5057">confirmation</tspan></text>
    <g
       transform="translate(460.34711,-51.100608)"
       id="g5492">
      <g
         style="stroke:#000000;stroke-opacity:1"
         transform="translate(-146.52321,-24.022713)"
         id="g5477">
        <path
           style="font-size:medium;font-style:normal;font-variant:normal;font-weight:normal;font-stretch:normal;text-indent:0;text-align:start;text-decoration:none;line-height:normal;letter-spacing:normal;word-spacing:normal;text-transform:none;direction:ltr;block-progression:tb;writing-mode:lr-tb;text-anchor:start;baseline-shift:baseline;color:#000000;fill:none;stroke:#000000;stroke-width:0.035;stroke-miterlimit:4;stroke-opacity:1;stroke-dasharray:none;marker:none;visibility:visible;display:inline;overflow:visible;enable-background:accumulate;font-family:Sans;-inkscape-font-specification:Sans"
           d="m 737.51062,131.46912 c -0.73192,0.0767 -1.34769,0.76408 -1.34375,1.5 l 0,188.5625 c 8e-5,0.78538 0.71462,1.49992 1.5,1.5 l 350.24723,0 c 0.7854,-8e-5 1.5,-0.71462 1.5,-1.5 l 0,-4.375 8.5313,-8.53125 c 0.2774,-0.27843 0.4384,-0.66944 0.4375,-1.0625 l 0,-120.71875 c 9e-4,-0.39306 -0.1601,-0.78407 -0.4375,-1.0625 l -8.5313,-8.5625 0,-35.78125 c 10e-4,-0.39306 -0.16,-0.78407 -0.4375,-1.0625 l -8.5,-8.46875 c -0.2784,-0.27744 -0.6694,-0.43845 -1.0625,-0.4375 l -341.74723,0 c -0.052,-0.003 -0.10421,-0.003 -0.15625,0 z m 1.65625,3 339.62223,0 7.625,7.59375 0,35.78125 c -9e-4,0.39306 0.1601,0.78407 0.4375,1.0625 l 8.5313,8.5625 0,119.46875 -8.5313,8.53125 c -0.2774,0.27843 -0.4384,0.66944 -0.4375,1.0625 l 0,3.5 -347.24723,0 z"
           id="path5399"
           inkscape:connector-curvature="0"
           sodipodi:nodetypes="cccccccccccccccccccccccccccccc" />
        <path
           sodipodi:nodetypes="ssssssccsscssssssssssssssssssssssssssscccccsssssssssssssssssssssssss"
           inkscape:connector-curvature="0"
           style="fill:none;stroke:#000000;stroke-width:0.035;stroke-miterlimit:4;stroke-opacity:1;stroke-dasharray:none"
           d="m 748.45415,262.90816 c -2.985,0 -5.4048,2.41981 -5.4048,5.40476 l 0,43.23808 c 0,2.985 2.4198,5.4048 5.4048,5.4048 l 21.619,0 c 2.985,0 5.4048,-2.4198 5.4048,-5.4048 l 0,-4.2741 0,-1.1306 0,-16.2143 c 0,-2.985 -2.4198,-5.40479 -5.4048,-5.40479 l -16.2142,0 0,-16.21429 c 0,-2.98495 -2.4198,-5.40476 -5.4048,-5.40476 z m 0,1.3512 c 2.2387,0 4.0536,1.81483 4.0536,4.05356 0,2.23873 -1.8149,4.05358 -4.0536,4.05358 -2.2387,0 -4.0536,-1.81485 -4.0536,-4.05358 0,-2.23873 1.8149,-4.05356 4.0536,-4.05356 z m 0,10.80951 c 2.2387,0 4.0536,1.81485 4.0536,4.05358 0,2.23872 -1.8149,4.05357 -4.0536,4.05357 -2.2387,0 -4.0536,-1.81485 -4.0536,-4.05357 0,-2.23873 1.8149,-4.05358 4.0536,-4.05358 z m 0,10.80953 c 2.2387,0 4.0536,1.8148 4.0536,4.0536 0,2.2387 -1.8149,4.0536 -4.0536,4.0536 -2.2387,0 -4.0536,-1.8149 -4.0536,-4.0536 0,-2.2388 1.8149,-4.0536 4.0536,-4.0536 z m 10.8095,0 c 2.2388,0 4.0536,1.8148 4.0536,4.0536 0,2.2387 -1.8148,4.0536 -4.0536,4.0536 -2.2387,0 -4.0535,-1.8149 -4.0535,-4.0536 0,-2.2388 1.8148,-4.0536 4.0535,-4.0536 z m 10.8095,0 c 2.2388,0 4.0536,1.8148 4.0536,4.0536 0,2.2387 -1.8148,4.0536 -4.0536,4.0536 -2.2387,0 -4.0535,-1.8149 -4.0535,-4.0536 0,-2.2388 1.8148,-4.0536 4.0535,-4.0536 z m -16.2142,9.4583 10.8095,0 0,10.8096 -10.8095,0 z m -5.4048,1.3512 c 2.2387,0 4.0536,1.8149 4.0536,4.0536 0,2.2387 -1.8149,4.0536 -4.0536,4.0536 -2.2387,0 -4.0536,-1.8149 -4.0536,-4.0536 0,-2.2387 1.8149,-4.0536 4.0536,-4.0536 z m 21.619,0 c 2.2388,0 4.0536,1.8149 4.0536,4.0536 0,2.2387 -1.8148,4.0536 -4.0536,4.0536 -2.2387,0 -4.0535,-1.8149 -4.0535,-4.0536 0,-2.2387 1.8148,-4.0536 4.0535,-4.0536 z m -21.619,10.8096 c 2.2387,0 4.0536,1.8148 4.0536,4.0535 0,2.2387 -1.8149,4.0536 -4.0536,4.0536 -2.2387,0 -4.0536,-1.8149 -4.0536,-4.0536 0,-2.2387 1.8149,-4.0535 4.0536,-4.0535 z m 10.8095,0 c 2.2388,0 4.0536,1.8148 4.0536,4.0535 0,2.2387 -1.8148,4.0536 -4.0536,4.0536 -2.2387,0 -4.0535,-1.8149 -4.0535,-4.0536 0,-2.2387 1.8148,-4.0535 4.0535,-4.0535 z m 10.8095,0 c 2.2388,0 4.0536,1.8148 4.0536,4.0535 0,2.2387 -1.8148,4.0536 -4.0536,4.0536 -2.2387,0 -4.0535,-1.8149 -4.0535,-4.0536 0,-2.2387 1.8148,-4.0535 4.0535,-4.0535 z"
           id="path5401" />
        <path
           inkscape:connector-curvature="0"
           id="path5403"
           style="font-size:20px;font-style:normal;font-variant:normal;font-weight:bold;font-stretch:normal;line-height:125%;letter-spacing:0px;word-spacing:0px;fill:none;stroke:#000000;stroke-width:0.035;stroke-miterlimit:4;stroke-opacity:1;stroke-dasharray:none;font-family:FreeSans;-inkscape-font-specification:Sans Bold"
           d="m 803.9219,315.49856 -2.54,0 -4.92,-14.58 3.02,0 3.24,10.98001 3.18,-10.98001 3.02,0 -5,14.58" />
        <path
           inkscape:connector-curvature="0"
           id="path5405"
           style="font-size:20px;font-style:normal;font-variant:normal;font-weight:bold;font-stretch:normal;line-height:125%;letter-spacing:0px;word-spacing:0px;fill:none;stroke:#000000;stroke-width:0.035;stroke-miterlimit:4;stroke-opacity:1;stroke-dasharray:none;font-family:FreeSans;-inkscape-font-specification:Sans Bold"
           d="m 819.78127,310.03856 0,2.32 -1.48,0 0,3.14 -2.8,0 0,-3.14 -5.68,0 0,-2.36 5.18,-8.68 3.3,0 0,8.72 1.48,0 m -4.28,0 0,-6.06 -3.7,6.06 3.7,0" />
      </g>
      <g
         style="stroke:#ff0000;stroke-opacity:1"
         transform="translate(-146.52321,-24.022713)"
         id="g5627">
        <path
           sodipodi:type="arc"
           style="fill:none;stroke:#ff0000;stroke-width:0.01578448;stroke-linecap:round;stroke-linejoin:round;stroke-miterlimit:4;stroke-opacity:1;stroke-dasharray:none;stroke-dashoffset:0"
           id="path5315"
           sodipodi:cx="119.25381"
           sodipodi:cy="339.31631"
           sodipodi:rx="2.4961903"
           sodipodi:ry="2.4961903"
           d="m 121.75,339.31631 c 0,1.37861 -1.11759,2.4962 -2.49619,2.4962 -1.37861,0 -2.49619,-1.11759 -2.49619,-2.4962 0,-1.3786 1.11758,-2.49619 2.49619,-2.49619 1.3786,0 2.49619,1.11759 2.49619,2.49619 z"
           transform="matrix(2.2448037,0,0,2.2448037,703.42264,-467.11162)" />
        <path
           transform="matrix(2.2448037,0,0,2.2448037,703.42264,-565.88298)"
           sodipodi:type="arc"
           style="fill:none;stroke:#ff0000;stroke-width:0.01578448;stroke-linecap:round;stroke-linejoin:round;stroke-miterlimit:4;stroke-opacity:1;stroke-dasharray:none;stroke-dashoffset:0"
           id="path5317"
           sodipodi:cx="119.25381"
           sodipodi:cy="339.31631"
           sodipodi:rx="2.4961903"
           sodipodi:ry="2.4961903"
           d="m 121.75,339.31631 c 0,1.37861 -1.11759,2.4962 -2.49619,2.4962 -1.37861,0 -2.49619,-1.11759 -2.49619,-2.4962 0,-1.3786 1.11758,-2.49619 2.49619,-2.49619 1.3786,0 2.49619,1.11759 2.49619,2.49619 z" />
        <path
           d="m 121.75,339.31631 c 0,1.37861 -1.11759,2.4962 -2.49619,2.4962 -1.37861,0 -2.49619,-1.11759 -2.49619,-2.4962 0,-1.3786 1.11758,-2.49619 2.49619,-2.49619 1.3786,0 2.49619,1.11759 2.49619,2.49619 z"
           sodipodi:ry="2.4961903"
           sodipodi:rx="2.4961903"
           sodipodi:cy="339.31631"
           sodipodi:cx="119.25381"
           id="path5319"
           style="fill:none;stroke:#ff0000;stroke-width:0.01578448;stroke-linecap:round;stroke-linejoin:round;stroke-miterlimit:4;stroke-opacity:1;stroke-dasharray:none;stroke-dashoffset:0"
           sodipodi:type="arc"
           transform="matrix(2.2448037,0,0,2.2448037,523.83837,-619.75827)" />
        <path
           transform="matrix(2.2448037,0,0,2.2448037,519.34876,-449.15319)"
           d="m 121.75,339.31631 c 0,1.37861 -1.11759,2.4962 -2.49619,2.4962 -1.37861,0 -2.49619,-1.11759 -2.49619,-2.4962 0,-1.3786 1.11758,-2.49619 2.49619,-2.49619 1.3786,0 2.49619,1.11759 2.49619,2.49619 z"
           sodipodi:ry="2.4961903"
           sodipodi:rx="2.4961903"
           sodipodi:cy="339.31631"
           sodipodi:cx="119.25381"
           id="path5321"
           style="fill:none;stroke:#ff0000;stroke-width:0.01578448;stroke-linecap:round;stroke-linejoin:round;stroke-miterlimit:4;stroke-opacity:1;stroke-dasharray:none;stroke-dashoffset:0"
           sodipodi:type="arc" />
        <path
           sodipodi:type="arc"
           style="fill:none;stroke:#ff0000;stroke-width:0.13988096;stroke-miterlimit:4;stroke-opacity:1;stroke-dasharray:none"
           id="path5323"
           sodipodi:cx="154.28572"
           sodipodi:cy="198.07646"
           sodipodi:rx="33.57143"
           sodipodi:ry="33.57143"
           d="m 187.85715,198.07646 c 0,18.54099 -15.03044,33.57143 -33.57143,33.57143 -18.54099,0 -33.57143,-15.03044 -33.57143,-33.57143 0,-18.54099 15.03044,-33.57143 33.57143,-33.57143 18.54099,0 33.57143,15.03044 33.57143,33.57143 z"
           transform="matrix(0,-0.25330875,0.25330875,0,666.98209,379.71322)" />
        <path
           transform="matrix(0,-0.25330875,0.25330875,0,666.98209,351.36677)"
           d="m 187.85715,198.07646 c 0,18.54099 -15.03044,33.57143 -33.57143,33.57143 -18.54099,0 -33.57143,-15.03044 -33.57143,-33.57143 0,-18.54099 15.03044,-33.57143 33.57143,-33.57143 18.54099,0 33.57143,15.03044 33.57143,33.57143 z"
           sodipodi:ry="33.57143"
           sodipodi:rx="33.57143"
           sodipodi:cy="198.07646"
           sodipodi:cx="154.28572"
           id="path5325"
           style="fill:none;stroke:#ff0000;stroke-width:0.13988096;stroke-miterlimit:4;stroke-opacity:1;stroke-dasharray:none"
           sodipodi:type="arc" />
        <path
           sodipodi:type="arc"
           style="fill:none;stroke:#ff0000;stroke-width:0.13988096;stroke-miterlimit:4;stroke-opacity:1;stroke-dasharray:none"
           id="path5327"
           sodipodi:cx="154.28572"
           sodipodi:cy="198.07646"
           sodipodi:rx="33.57143"
           sodipodi:ry="33.57143"
           d="m 187.85715,198.07646 c 0,18.54099 -15.03044,33.57143 -33.57143,33.57143 -18.54099,0 -33.57143,-15.03044 -33.57143,-33.57143 0,-18.54099 15.03044,-33.57143 33.57143,-33.57143 18.54099,0 33.57143,15.03044 33.57143,33.57143 z"
           transform="matrix(0,-0.25330875,0.25330875,0,666.98209,323.02031)" />
        <path
           sodipodi:type="arc"
           style="fill:none;stroke:#ff0000;stroke-width:0.13988096;stroke-miterlimit:4;stroke-opacity:1;stroke-dasharray:none"
           id="path5329"
           sodipodi:cx="154.28572"
           sodipodi:cy="198.07646"
           sodipodi:rx="33.57143"
           sodipodi:ry="33.57143"
           d="m 187.85715,198.07646 c 0,18.54099 -15.03044,33.57143 -33.57143,33.57143 -18.54099,0 -33.57143,-15.03044 -33.57143,-33.57143 0,-18.54099 15.03044,-33.57143 33.57143,-33.57143 18.54099,0 33.57143,15.03044 33.57143,33.57143 z"
           transform="matrix(0,-0.25330875,0.25330875,0,666.98209,294.67386)" />
        <path
           transform="matrix(0,-0.25330875,0.25330875,0,666.98209,266.3274)"
           d="m 187.85715,198.07646 c 0,18.54099 -15.03044,33.57143 -33.57143,33.57143 -18.54099,0 -33.57143,-15.03044 -33.57143,-33.57143 0,-18.54099 15.03044,-33.57143 33.57143,-33.57143 18.54099,0 33.57143,15.03044 33.57143,33.57143 z"
           sodipodi:ry="33.57143"
           sodipodi:rx="33.57143"
           sodipodi:cy="198.07646"
           sodipodi:cx="154.28572"
           id="path5331"
           style="fill:none;stroke:#ff0000;stroke-width:0.13988096;stroke-miterlimit:4;stroke-opacity:1;stroke-dasharray:none"
           sodipodi:type="arc" />
        <path
           sodipodi:type="arc"
           style="fill:none;stroke:#ff0000;stroke-width:0.13988096;stroke-miterlimit:4;stroke-opacity:1;stroke-dasharray:none"
           id="path5333"
           sodipodi:cx="154.28572"
           sodipodi:cy="198.07646"
           sodipodi:rx="33.57143"
           sodipodi:ry="33.57143"
           d="m 187.85715,198.07646 c 0,18.54099 -15.03044,33.57143 -33.57143,33.57143 -18.54099,0 -33.57143,-15.03044 -33.57143,-33.57143 0,-18.54099 15.03044,-33.57143 33.57143,-33.57143 18.54099,0 33.57143,15.03044 33.57143,33.57143 z"
           transform="matrix(0,-0.25330875,0.25330875,0,666.98209,237.98095)" />
        <path
           transform="matrix(0,-0.25330875,0.25330875,0,666.98209,209.63449)"
           d="m 187.85715,198.07646 c 0,18.54099 -15.03044,33.57143 -33.57143,33.57143 -18.54099,0 -33.57143,-15.03044 -33.57143,-33.57143 0,-18.54099 15.03044,-33.57143 33.57143,-33.57143 18.54099,0 33.57143,15.03044 33.57143,33.57143 z"
           sodipodi:ry="33.57143"
           sodipodi:rx="33.57143"
           sodipodi:cy="198.07646"
           sodipodi:cx="154.28572"
           id="path5335"
           style="fill:none;stroke:#ff0000;stroke-width:0.13988096;stroke-miterlimit:4;stroke-opacity:1;stroke-dasharray:none"
           sodipodi:type="arc" />
        <path
           transform="matrix(0,-0.25330875,0.25330875,0,666.98209,181.28804)"
           d="m 187.85715,198.07646 c 0,18.54099 -15.03044,33.57143 -33.57143,33.57143 -18.54099,0 -33.57143,-15.03044 -33.57143,-33.57143 0,-18.54099 15.03044,-33.57143 33.57143,-33.57143 18.54099,0 33.57143,15.03044 33.57143,33.57143 z"
           sodipodi:ry="33.57143"
           sodipodi:rx="33.57143"
           sodipodi:cy="198.07646"
           sodipodi:cx="154.28572"
           id="path5337"
           style="fill:none;stroke:#ff0000;stroke-width:0.13988096;stroke-miterlimit:4;stroke-opacity:1;stroke-dasharray:none"
           sodipodi:type="arc" />
        <path
           sodipodi:type="arc"
           style="fill:none;stroke:#ff0000;stroke-width:0.13988096;stroke-miterlimit:4;stroke-opacity:1;stroke-dasharray:none"
           id="path5339"
           sodipodi:cx="154.28572"
           sodipodi:cy="198.07646"
           sodipodi:rx="33.57143"
           sodipodi:ry="33.57143"
           d="m 187.85715,198.07646 c 0,18.54099 -15.03044,33.57143 -33.57143,33.57143 -18.54099,0 -33.57143,-15.03044 -33.57143,-33.57143 0,-18.54099 15.03044,-33.57143 33.57143,-33.57143 18.54099,0 33.57143,15.03044 33.57143,33.57143 z"
           transform="matrix(0,-0.25330875,0.25330875,0,666.98209,152.94158)" />
        <path
           transform="matrix(0,-0.25330875,0.25330875,0,1063.8325,351.36677)"
           d="m 187.85715,198.07646 c 0,18.54099 -15.03044,33.57143 -33.57143,33.57143 -18.54099,0 -33.57143,-15.03044 -33.57143,-33.57143 0,-18.54099 15.03044,-33.57143 33.57143,-33.57143 18.54099,0 33.57143,15.03044 33.57143,33.57143 z"
           sodipodi:ry="33.57143"
           sodipodi:rx="33.57143"
           sodipodi:cy="198.07646"
           sodipodi:cx="154.28572"
           id="path5341"
           style="fill:none;stroke:#ff0000;stroke-width:0.13988096;stroke-miterlimit:4;stroke-opacity:1;stroke-dasharray:none"
           sodipodi:type="arc" />
        <path
           sodipodi:type="arc"
           style="fill:none;stroke:#ff0000;stroke-width:0.13988096;stroke-miterlimit:4;stroke-opacity:1;stroke-dasharray:none"
           id="path5343"
           sodipodi:cx="154.28572"
           sodipodi:cy="198.07646"
           sodipodi:rx="33.57143"
           sodipodi:ry="33.57143"
           d="m 187.85715,198.07646 c 0,18.54099 -15.03044,33.57143 -33.57143,33.57143 -18.54099,0 -33.57143,-15.03044 -33.57143,-33.57143 0,-18.54099 15.03044,-33.57143 33.57143,-33.57143 18.54099,0 33.57143,15.03044 33.57143,33.57143 z"
           transform="matrix(0,-0.25330875,0.25330875,0,1063.8325,323.02031)" />
        <path
           sodipodi:type="arc"
           style="fill:none;stroke:#ff0000;stroke-width:0.13988096;stroke-miterlimit:4;stroke-opacity:1;stroke-dasharray:none"
           id="path5345"
           sodipodi:cx="154.28572"
           sodipodi:cy="198.07646"
           sodipodi:rx="33.57143"
           sodipodi:ry="33.57143"
           d="m 187.85715,198.07646 c 0,18.54099 -15.03044,33.57143 -33.57143,33.57143 -18.54099,0 -33.57143,-15.03044 -33.57143,-33.57143 0,-18.54099 15.03044,-33.57143 33.57143,-33.57143 18.54099,0 33.57143,15.03044 33.57143,33.57143 z"
           transform="matrix(0,-0.25330875,0.25330875,0,1063.8325,294.67386)" />
        <path
           transform="matrix(0,-0.25330875,0.25330875,0,1063.8325,266.3274)"
           d="m 187.85715,198.07646 c 0,18.54099 -15.03044,33.57143 -33.57143,33.57143 -18.54099,0 -33.57143,-15.03044 -33.57143,-33.57143 0,-18.54099 15.03044,-33.57143 33.57143,-33.57143 18.54099,0 33.57143,15.03044 33.57143,33.57143 z"
           sodipodi:ry="33.57143"
           sodipodi:rx="33.57143"
           sodipodi:cy="198.07646"
           sodipodi:cx="154.28572"
           id="path5347"
           style="fill:none;stroke:#ff0000;stroke-width:0.13988096;stroke-miterlimit:4;stroke-opacity:1;stroke-dasharray:none"
           sodipodi:type="arc" />
        <path
           sodipodi:type="arc"
           style="fill:none;stroke:#ff0000;stroke-width:0.13988096;stroke-miterlimit:4;stroke-opacity:1;stroke-dasharray:none"
           id="path5349"
           sodipodi:cx="154.28572"
           sodipodi:cy="198.07646"
           sodipodi:rx="33.57143"
           sodipodi:ry="33.57143"
           d="m 187.85715,198.07646 c 0,18.54099 -15.03044,33.57143 -33.57143,33.57143 -18.54099,0 -33.57143,-15.03044 -33.57143,-33.57143 0,-18.54099 15.03044,-33.57143 33.57143,-33.57143 18.54099,0 33.57143,15.03044 33.57143,33.57143 z"
           transform="matrix(0,-0.25330875,0.25330875,0,1063.8325,237.98095)" />
        <path
           transform="matrix(0,-0.25330875,0.25330875,0,1063.8325,209.63449)"
           d="m 187.85715,198.07646 c 0,18.54099 -15.03044,33.57143 -33.57143,33.57143 -18.54099,0 -33.57143,-15.03044 -33.57143,-33.57143 0,-18.54099 15.03044,-33.57143 33.57143,-33.57143 18.54099,0 33.57143,15.03044 33.57143,33.57143 z"
           sodipodi:ry="33.57143"
           sodipodi:rx="33.57143"
           sodipodi:cy="198.07646"
           sodipodi:cx="154.28572"
           id="path5351"
           style="fill:none;stroke:#ff0000;stroke-width:0.13988096;stroke-miterlimit:4;stroke-opacity:1;stroke-dasharray:none"
           sodipodi:type="arc" />
        <path
           transform="matrix(0,-0.25330875,0.25330875,0,1063.8325,181.28804)"
           d="m 187.85715,198.07646 c 0,18.54099 -15.03044,33.57143 -33.57143,33.57143 -18.54099,0 -33.57143,-15.03044 -33.57143,-33.57143 0,-18.54099 15.03044,-33.57143 33.57143,-33.57143 18.54099,0 33.57143,15.03044 33.57143,33.57143 z"
           sodipodi:ry="33.57143"
           sodipodi:rx="33.57143"
           sodipodi:cy="198.07646"
           sodipodi:cx="154.28572"
           id="path5353"
           style="fill:none;stroke:#ff0000;stroke-width:0.13988096;stroke-miterlimit:4;stroke-opacity:1;stroke-dasharray:none"
           sodipodi:type="arc" />
        <path
           transform="matrix(-0.25330875,1.0135064e-8,-1.0135064e-8,-0.25330875,983.01017,164.03417)"
           d="m 187.85715,198.07646 c 0,18.54099 -15.03044,33.57143 -33.57143,33.57143 -18.54099,0 -33.57143,-15.03044 -33.57143,-33.57143 0,-18.54099 15.03044,-33.57143 33.57143,-33.57143 18.54099,0 33.57143,15.03044 33.57143,33.57143 z"
           sodipodi:ry="33.57143"
           sodipodi:rx="33.57143"
           sodipodi:cy="198.07646"
           sodipodi:cx="154.28572"
           id="path5355"
           style="fill:none;stroke:#ff0000;stroke-width:0.13988096;stroke-miterlimit:4;stroke-opacity:1;stroke-dasharray:none"
           sodipodi:type="arc" />
        <path
           sodipodi:type="arc"
           style="fill:none;stroke:#ff0000;stroke-width:0.13988096;stroke-miterlimit:4;stroke-opacity:1;stroke-dasharray:none"
           id="path5357"
           sodipodi:cx="154.28572"
           sodipodi:cy="198.07646"
           sodipodi:rx="33.57143"
           sodipodi:ry="33.57143"
           d="m 187.85715,198.07646 c 0,18.54099 -15.03044,33.57143 -33.57143,33.57143 -18.54099,0 -33.57143,-15.03044 -33.57143,-33.57143 0,-18.54099 15.03044,-33.57143 33.57143,-33.57143 18.54099,0 33.57143,15.03044 33.57143,33.57143 z"
           transform="matrix(-0.25330875,1.0135064e-8,-1.0135064e-8,-0.25330875,954.66372,164.03416)" />
        <path
           transform="matrix(-0.25330875,1.0135064e-8,-1.0135064e-8,-0.25330875,926.31725,164.03416)"
           d="m 187.85715,198.07646 c 0,18.54099 -15.03044,33.57143 -33.57143,33.57143 -18.54099,0 -33.57143,-15.03044 -33.57143,-33.57143 0,-18.54099 15.03044,-33.57143 33.57143,-33.57143 18.54099,0 33.57143,15.03044 33.57143,33.57143 z"
           sodipodi:ry="33.57143"
           sodipodi:rx="33.57143"
           sodipodi:cy="198.07646"
           sodipodi:cx="154.28572"
           id="path5359"
           style="fill:none;stroke:#ff0000;stroke-width:0.13988096;stroke-miterlimit:4;stroke-opacity:1;stroke-dasharray:none"
           sodipodi:type="arc" />
        <path
           transform="matrix(-0.25330875,1.0135064e-8,-1.0135064e-8,-0.25330875,897.97081,164.03416)"
           d="m 187.85715,198.07646 c 0,18.54099 -15.03044,33.57143 -33.57143,33.57143 -18.54099,0 -33.57143,-15.03044 -33.57143,-33.57143 0,-18.54099 15.03044,-33.57143 33.57143,-33.57143 18.54099,0 33.57143,15.03044 33.57143,33.57143 z"
           sodipodi:ry="33.57143"
           sodipodi:rx="33.57143"
           sodipodi:cy="198.07646"
           sodipodi:cx="154.28572"
           id="path5361"
           style="fill:none;stroke:#ff0000;stroke-width:0.13988096;stroke-miterlimit:4;stroke-opacity:1;stroke-dasharray:none"
           sodipodi:type="arc" />
        <path
           sodipodi:type="arc"
           style="fill:none;stroke:#ff0000;stroke-width:0.13988096;stroke-miterlimit:4;stroke-opacity:1;stroke-dasharray:none"
           id="path5363"
           sodipodi:cx="154.28572"
           sodipodi:cy="198.07646"
           sodipodi:rx="33.57143"
           sodipodi:ry="33.57143"
           d="m 187.85715,198.07646 c 0,18.54099 -15.03044,33.57143 -33.57143,33.57143 -18.54099,0 -33.57143,-15.03044 -33.57143,-33.57143 0,-18.54099 15.03044,-33.57143 33.57143,-33.57143 18.54099,0 33.57143,15.03044 33.57143,33.57143 z"
           transform="matrix(-0.25330875,1.0135064e-8,-1.0135064e-8,-0.25330875,869.62433,164.03416)" />
        <path
           transform="matrix(-0.25330875,1.0135064e-8,-1.0135064e-8,-0.25330875,841.27789,164.03416)"
           d="m 187.85715,198.07646 c 0,18.54099 -15.03044,33.57143 -33.57143,33.57143 -18.54099,0 -33.57143,-15.03044 -33.57143,-33.57143 0,-18.54099 15.03044,-33.57143 33.57143,-33.57143 18.54099,0 33.57143,15.03044 33.57143,33.57143 z"
           sodipodi:ry="33.57143"
           sodipodi:rx="33.57143"
           sodipodi:cy="198.07646"
           sodipodi:cx="154.28572"
           id="path5365"
           style="fill:none;stroke:#ff0000;stroke-width:0.13988096;stroke-miterlimit:4;stroke-opacity:1;stroke-dasharray:none"
           sodipodi:type="arc" />
        <path
           sodipodi:type="arc"
           style="fill:none;stroke:#ff0000;stroke-width:0.13988096;stroke-miterlimit:4;stroke-opacity:1;stroke-dasharray:none"
           id="path5367"
           sodipodi:cx="154.28572"
           sodipodi:cy="198.07646"
           sodipodi:rx="33.57143"
           sodipodi:ry="33.57143"
           d="m 187.85715,198.07646 c 0,18.54099 -15.03044,33.57143 -33.57143,33.57143 -18.54099,0 -33.57143,-15.03044 -33.57143,-33.57143 0,-18.54099 15.03044,-33.57143 33.57143,-33.57143 18.54099,0 33.57143,15.03044 33.57143,33.57143 z"
           transform="matrix(-0.25330875,1.0135064e-8,-1.0135064e-8,-0.25330875,812.93145,164.03416)" />
        <path
           sodipodi:type="arc"
           style="fill:none;stroke:#ff0000;stroke-width:0.13988096;stroke-miterlimit:4;stroke-opacity:1;stroke-dasharray:none"
           id="path5369"
           sodipodi:cx="154.28572"
           sodipodi:cy="198.07646"
           sodipodi:rx="33.57143"
           sodipodi:ry="33.57143"
           d="m 187.85715,198.07646 c 0,18.54099 -15.03044,33.57143 -33.57143,33.57143 -18.54099,0 -33.57143,-15.03044 -33.57143,-33.57143 0,-18.54099 15.03044,-33.57143 33.57143,-33.57143 18.54099,0 33.57143,15.03044 33.57143,33.57143 z"
           transform="matrix(-0.25330875,1.0135064e-8,-1.0135064e-8,-0.25330875,784.58499,164.03416)" />
        <path
           transform="matrix(-0.25330875,1.0135064e-8,-1.0135064e-8,-0.25330875,1153.0889,164.03417)"
           d="m 187.85715,198.07646 c 0,18.54099 -15.03044,33.57143 -33.57143,33.57143 -18.54099,0 -33.57143,-15.03044 -33.57143,-33.57143 0,-18.54099 15.03044,-33.57143 33.57143,-33.57143 18.54099,0 33.57143,15.03044 33.57143,33.57143 z"
           sodipodi:ry="33.57143"
           sodipodi:rx="33.57143"
           sodipodi:cy="198.07646"
           sodipodi:cx="154.28572"
           id="path5371"
           style="fill:none;stroke:#ff0000;stroke-width:0.13988096;stroke-miterlimit:4;stroke-opacity:1;stroke-dasharray:none"
           sodipodi:type="arc" />
        <path
           transform="matrix(-0.25330875,1.0135064e-8,-1.0135064e-8,-0.25330875,1011.3566,164.03417)"
           d="m 187.85715,198.07646 c 0,18.54099 -15.03044,33.57143 -33.57143,33.57143 -18.54099,0 -33.57143,-15.03044 -33.57143,-33.57143 0,-18.54099 15.03044,-33.57143 33.57143,-33.57143 18.54099,0 33.57143,15.03044 33.57143,33.57143 z"
           sodipodi:ry="33.57143"
           sodipodi:rx="33.57143"
           sodipodi:cy="198.07646"
           sodipodi:cx="154.28572"
           id="path5373"
           style="fill:none;stroke:#ff0000;stroke-width:0.13988096;stroke-miterlimit:4;stroke-opacity:1;stroke-dasharray:none"
           sodipodi:type="arc" />
        <path
           sodipodi:type="arc"
           style="fill:none;stroke:#ff0000;stroke-width:0.13988096;stroke-miterlimit:4;stroke-opacity:1;stroke-dasharray:none"
           id="path5375"
           sodipodi:cx="154.28572"
           sodipodi:cy="198.07646"
           sodipodi:rx="33.57143"
           sodipodi:ry="33.57143"
           d="m 187.85715,198.07646 c 0,18.54099 -15.03044,33.57143 -33.57143,33.57143 -18.54099,0 -33.57143,-15.03044 -33.57143,-33.57143 0,-18.54099 15.03044,-33.57143 33.57143,-33.57143 18.54099,0 33.57143,15.03044 33.57143,33.57143 z"
           transform="matrix(-0.25330875,1.0135064e-8,-1.0135064e-8,-0.25330875,983.01017,390.8058)" />
        <path
           transform="matrix(-0.25330875,1.0135064e-8,-1.0135064e-8,-0.25330875,954.66372,390.8058)"
           d="m 187.85715,198.07646 c 0,18.54099 -15.03044,33.57143 -33.57143,33.57143 -18.54099,0 -33.57143,-15.03044 -33.57143,-33.57143 0,-18.54099 15.03044,-33.57143 33.57143,-33.57143 18.54099,0 33.57143,15.03044 33.57143,33.57143 z"
           sodipodi:ry="33.57143"
           sodipodi:rx="33.57143"
           sodipodi:cy="198.07646"
           sodipodi:cx="154.28572"
           id="path5377"
           style="fill:none;stroke:#ff0000;stroke-width:0.13988096;stroke-miterlimit:4;stroke-opacity:1;stroke-dasharray:none"
           sodipodi:type="arc" />
        <path
           sodipodi:type="arc"
           style="fill:none;stroke:#ff0000;stroke-width:0.13988096;stroke-miterlimit:4;stroke-opacity:1;stroke-dasharray:none"
           id="path5379"
           sodipodi:cx="154.28572"
           sodipodi:cy="198.07646"
           sodipodi:rx="33.57143"
           sodipodi:ry="33.57143"
           d="m 187.85715,198.07646 c 0,18.54099 -15.03044,33.57143 -33.57143,33.57143 -18.54099,0 -33.57143,-15.03044 -33.57143,-33.57143 0,-18.54099 15.03044,-33.57143 33.57143,-33.57143 18.54099,0 33.57143,15.03044 33.57143,33.57143 z"
           transform="matrix(-0.25330875,1.0135064e-8,-1.0135064e-8,-0.25330875,926.31725,390.8058)" />
        <path
           sodipodi:type="arc"
           style="fill:none;stroke:#ff0000;stroke-width:0.13988096;stroke-miterlimit:4;stroke-opacity:1;stroke-dasharray:none"
           id="path5381"
           sodipodi:cx="154.28572"
           sodipodi:cy="198.07646"
           sodipodi:rx="33.57143"
           sodipodi:ry="33.57143"
           d="m 187.85715,198.07646 c 0,18.54099 -15.03044,33.57143 -33.57143,33.57143 -18.54099,0 -33.57143,-15.03044 -33.57143,-33.57143 0,-18.54099 15.03044,-33.57143 33.57143,-33.57143 18.54099,0 33.57143,15.03044 33.57143,33.57143 z"
           transform="matrix(-0.25330875,1.0135064e-8,-1.0135064e-8,-0.25330875,897.97081,390.8058)" />
        <path
           transform="matrix(-0.25330875,1.0135064e-8,-1.0135064e-8,-0.25330875,869.62433,390.8058)"
           d="m 187.85715,198.07646 c 0,18.54099 -15.03044,33.57143 -33.57143,33.57143 -18.54099,0 -33.57143,-15.03044 -33.57143,-33.57143 0,-18.54099 15.03044,-33.57143 33.57143,-33.57143 18.54099,0 33.57143,15.03044 33.57143,33.57143 z"
           sodipodi:ry="33.57143"
           sodipodi:rx="33.57143"
           sodipodi:cy="198.07646"
           sodipodi:cx="154.28572"
           id="path5383"
           style="fill:none;stroke:#ff0000;stroke-width:0.13988096;stroke-miterlimit:4;stroke-opacity:1;stroke-dasharray:none"
           sodipodi:type="arc" />
        <path
           sodipodi:type="arc"
           style="fill:none;stroke:#ff0000;stroke-width:0.13988096;stroke-miterlimit:4;stroke-opacity:1;stroke-dasharray:none"
           id="path5385"
           sodipodi:cx="154.28572"
           sodipodi:cy="198.07646"
           sodipodi:rx="33.57143"
           sodipodi:ry="33.57143"
           d="m 187.85715,198.07646 c 0,18.54099 -15.03044,33.57143 -33.57143,33.57143 -18.54099,0 -33.57143,-15.03044 -33.57143,-33.57143 0,-18.54099 15.03044,-33.57143 33.57143,-33.57143 18.54099,0 33.57143,15.03044 33.57143,33.57143 z"
           transform="matrix(-0.25330875,1.0135064e-8,-1.0135064e-8,-0.25330875,841.27789,390.8058)" />
        <path
           transform="matrix(-0.25330875,1.0135064e-8,-1.0135064e-8,-0.25330875,812.93145,390.8058)"
           d="m 187.85715,198.07646 c 0,18.54099 -15.03044,33.57143 -33.57143,33.57143 -18.54099,0 -33.57143,-15.03044 -33.57143,-33.57143 0,-18.54099 15.03044,-33.57143 33.57143,-33.57143 18.54099,0 33.57143,15.03044 33.57143,33.57143 z"
           sodipodi:ry="33.57143"
           sodipodi:rx="33.57143"
           sodipodi:cy="198.07646"
           sodipodi:cx="154.28572"
           id="path5387"
           style="fill:none;stroke:#ff0000;stroke-width:0.13988096;stroke-miterlimit:4;stroke-opacity:1;stroke-dasharray:none"
           sodipodi:type="arc" />
        <path
           transform="matrix(-0.25330875,1.0135064e-8,-1.0135064e-8,-0.25330875,784.58499,390.8058)"
           d="m 187.85715,198.07646 c 0,18.54099 -15.03044,33.57143 -33.57143,33.57143 -18.54099,0 -33.57143,-15.03044 -33.57143,-33.57143 0,-18.54099 15.03044,-33.57143 33.57143,-33.57143 18.54099,0 33.57143,15.03044 33.57143,33.57143 z"
           sodipodi:ry="33.57143"
           sodipodi:rx="33.57143"
           sodipodi:cy="198.07646"
           sodipodi:cx="154.28572"
           id="path5389"
           style="fill:none;stroke:#ff0000;stroke-width:0.13988096;stroke-miterlimit:4;stroke-opacity:1;stroke-dasharray:none"
           sodipodi:type="arc" />
        <path
           sodipodi:type="arc"
           style="fill:none;stroke:#ff0000;stroke-width:0.13988096;stroke-miterlimit:4;stroke-opacity:1;stroke-dasharray:none"
           id="path5391"
           sodipodi:cx="154.28572"
           sodipodi:cy="198.07646"
           sodipodi:rx="33.57143"
           sodipodi:ry="33.57143"
           d="m 187.85715,198.07646 c 0,18.54099 -15.03044,33.57143 -33.57143,33.57143 -18.54099,0 -33.57143,-15.03044 -33.57143,-33.57143 0,-18.54099 15.03044,-33.57143 33.57143,-33.57143 18.54099,0 33.57143,15.03044 33.57143,33.57143 z"
           transform="matrix(-0.25330875,1.0135064e-8,-1.0135064e-8,-0.25330875,1011.3566,390.8058)" />
        <path
           transform="matrix(-0.25330875,1.0135064e-8,-1.0135064e-8,-0.25330875,1039.7031,390.8058)"
           d="m 187.85715,198.07646 c 0,18.54099 -15.03044,33.57143 -33.57143,33.57143 -18.54099,0 -33.57143,-15.03044 -33.57143,-33.57143 0,-18.54099 15.03044,-33.57143 33.57143,-33.57143 18.54099,0 33.57143,15.03044 33.57143,33.57143 z"
           sodipodi:ry="33.57143"
           sodipodi:rx="33.57143"
           sodipodi:cy="198.07646"
           sodipodi:cx="154.28572"
           id="path5393"
           style="fill:none;stroke:#ff0000;stroke-width:0.13988096;stroke-miterlimit:4;stroke-opacity:1;stroke-dasharray:none"
           sodipodi:type="arc" />
        <rect
           style="fill:none;stroke:#ff0000;stroke-width:0.035;stroke-linecap:round;stroke-linejoin:round;stroke-miterlimit:4;stroke-opacity:1;stroke-dasharray:none;stroke-dashoffset:0"
           id="rect5395"
           width="425.85834"
           height="255.77954"
           x="702.65265"
           y="99.355721"
           ry="8.5039349"
           rx="8.5039349" />
        <path
           d="m 121.75,339.31631 c 0,1.37861 -1.11759,2.4962 -2.49619,2.4962 -1.37861,0 -2.49619,-1.11759 -2.49619,-2.4962 0,-1.3786 1.11758,-2.49619 2.49619,-2.49619 1.3786,0 2.49619,1.11759 2.49619,2.49619 z"
           sodipodi:ry="2.4961903"
           sodipodi:rx="2.4961903"
           sodipodi:cy="339.31631"
           sodipodi:cx="119.25381"
           id="path5524"
           style="fill:none;stroke:#ff0000;stroke-width:0.01578448;stroke-linecap:round;stroke-linejoin:round;stroke-miterlimit:4;stroke-opacity:1;stroke-dasharray:none;stroke-dashoffset:0"
           sodipodi:type="arc"
           transform="matrix(2.2448037,0,0,2.2448037,788.79766,-619.79874)" />
        <path
           transform="matrix(2.2448037,0,0,2.2448037,811.25836,-449.0613)"
           sodipodi:type="arc"
           style="fill:none;stroke:#ff0000;stroke-width:0.01578448;stroke-linecap:round;stroke-linejoin:round;stroke-miterlimit:4;stroke-opacity:1;stroke-dasharray:none;stroke-dashoffset:0"
           id="path5526"
           sodipodi:cx="119.25381"
           sodipodi:cy="339.31631"
           sodipodi:rx="2.4961903"
           sodipodi:ry="2.4961903"
           d="m 121.75,339.31631 c 0,1.37861 -1.11759,2.4962 -2.49619,2.4962 -1.37861,0 -2.49619,-1.11759 -2.49619,-2.4962 0,-1.3786 1.11758,-2.49619 2.49619,-2.49619 1.3786,0 2.49619,1.11759 2.49619,2.49619 z" />
        <path
           sodipodi:type="arc"
           style="fill:none;stroke:#ff0000;stroke-width:0.13988096;stroke-miterlimit:4;stroke-opacity:1;stroke-dasharray:none"
           id="path5528"
           sodipodi:cx="154.28572"
           sodipodi:cy="198.07646"
           sodipodi:rx="33.57143"
           sodipodi:ry="33.57143"
           d="m 187.85715,198.07646 c 0,18.54099 -15.03044,33.57143 -33.57143,33.57143 -18.54099,0 -33.57143,-15.03044 -33.57143,-33.57143 0,-18.54099 15.03044,-33.57143 33.57143,-33.57143 18.54099,0 33.57143,15.03044 33.57143,33.57143 z"
           transform="matrix(-0.25330875,1.0135064e-8,-1.0135064e-8,-0.25330875,1096.396,390.80581)" />
        <path
           transform="matrix(-0.25330875,1.0135064e-8,-1.0135064e-8,-0.25330875,1068.0495,390.8058)"
           d="m 187.85715,198.07646 c 0,18.54099 -15.03044,33.57143 -33.57143,33.57143 -18.54099,0 -33.57143,-15.03044 -33.57143,-33.57143 0,-18.54099 15.03044,-33.57143 33.57143,-33.57143 18.54099,0 33.57143,15.03044 33.57143,33.57143 z"
           sodipodi:ry="33.57143"
           sodipodi:rx="33.57143"
           sodipodi:cy="198.07646"
           sodipodi:cx="154.28572"
           id="path5530"
           style="fill:none;stroke:#ff0000;stroke-width:0.13988096;stroke-miterlimit:4;stroke-opacity:1;stroke-dasharray:none"
           sodipodi:type="arc" />
        <path
           transform="matrix(-0.25330875,1.0135064e-8,-1.0135064e-8,-0.25330875,1124.7424,164.03417)"
           d="m 187.85715,198.07646 c 0,18.54099 -15.03044,33.57143 -33.57143,33.57143 -18.54099,0 -33.57143,-15.03044 -33.57143,-33.57143 0,-18.54099 15.03044,-33.57143 33.57143,-33.57143 18.54099,0 33.57143,15.03044 33.57143,33.57143 z"
           sodipodi:ry="33.57143"
           sodipodi:rx="33.57143"
           sodipodi:cy="198.07646"
           sodipodi:cx="154.28572"
           id="path5536"
           style="fill:none;stroke:#ff0000;stroke-width:0.13988096;stroke-miterlimit:4;stroke-opacity:1;stroke-dasharray:none"
           sodipodi:type="arc" />
        <path
           sodipodi:type="arc"
           style="fill:none;stroke:#ff0000;stroke-width:0.13988096;stroke-miterlimit:4;stroke-opacity:1;stroke-dasharray:none"
           id="path5538"
           sodipodi:cx="154.28572"
           sodipodi:cy="198.07646"
           sodipodi:rx="33.57143"
           sodipodi:ry="33.57143"
           d="m 187.85715,198.07646 c 0,18.54099 -15.03044,33.57143 -33.57143,33.57143 -18.54099,0 -33.57143,-15.03044 -33.57143,-33.57143 0,-18.54099 15.03044,-33.57143 33.57143,-33.57143 18.54099,0 33.57143,15.03044 33.57143,33.57143 z"
           transform="matrix(-0.25330875,1.0135064e-8,-1.0135064e-8,-0.25330875,1096.396,164.03417)" />
        <path
           transform="matrix(-0.25330875,1.0135064e-8,-1.0135064e-8,-0.25330875,1068.0496,164.03417)"
           d="m 187.85715,198.07646 c 0,18.54099 -15.03044,33.57143 -33.57143,33.57143 -18.54099,0 -33.57143,-15.03044 -33.57143,-33.57143 0,-18.54099 15.03044,-33.57143 33.57143,-33.57143 18.54099,0 33.57143,15.03044 33.57143,33.57143 z"
           sodipodi:ry="33.57143"
           sodipodi:rx="33.57143"
           sodipodi:cy="198.07646"
           sodipodi:cx="154.28572"
           id="path5540"
           style="fill:none;stroke:#ff0000;stroke-width:0.13988096;stroke-miterlimit:4;stroke-opacity:1;stroke-dasharray:none"
           sodipodi:type="arc" />
        <path
           sodipodi:type="arc"
           style="fill:none;stroke:#ff0000;stroke-width:0.13988096;stroke-miterlimit:4;stroke-opacity:1;stroke-dasharray:none"
           id="path5544"
           sodipodi:cx="154.28572"
           sodipodi:cy="198.07646"
           sodipodi:rx="33.57143"
           sodipodi:ry="33.57143"
           d="m 187.85715,198.07646 c 0,18.54099 -15.03044,33.57143 -33.57143,33.57143 -18.54099,0 -33.57143,-15.03044 -33.57143,-33.57143 0,-18.54099 15.03044,-33.57143 33.57143,-33.57143 18.54099,0 33.57143,15.03044 33.57143,33.57143 z"
           transform="matrix(-0.25330875,1.0135064e-8,-1.0135064e-8,-0.25330875,1153.0889,390.80581)" />
        <path
           sodipodi:type="arc"
           style="fill:none;stroke:#ff0000;stroke-width:0.13988096;stroke-miterlimit:4;stroke-opacity:1;stroke-dasharray:none"
           id="path5546"
           sodipodi:cx="154.28572"
           sodipodi:cy="198.07646"
           sodipodi:rx="33.57143"
           sodipodi:ry="33.57143"
           d="m 187.85715,198.07646 c 0,18.54099 -15.03044,33.57143 -33.57143,33.57143 -18.54099,0 -33.57143,-15.03044 -33.57143,-33.57143 0,-18.54099 15.03044,-33.57143 33.57143,-33.57143 18.54099,0 33.57143,15.03044 33.57143,33.57143 z"
           transform="matrix(-0.25330875,1.0135064e-8,-1.0135064e-8,-0.25330875,1124.7424,390.80581)" />
        <path
           transform="matrix(-0.25330875,1.0135064e-8,-1.0135064e-8,-0.25330875,1039.703,164.03417)"
           d="m 187.85715,198.07646 c 0,18.54099 -15.03044,33.57143 -33.57143,33.57143 -18.54099,0 -33.57143,-15.03044 -33.57143,-33.57143 0,-18.54099 15.03044,-33.57143 33.57143,-33.57143 18.54099,0 33.57143,15.03044 33.57143,33.57143 z"
           sodipodi:ry="33.57143"
           sodipodi:rx="33.57143"
           sodipodi:cy="198.07646"
           sodipodi:cx="154.28572"
           id="path5550"
           style="fill:none;stroke:#ff0000;stroke-width:0.13988096;stroke-miterlimit:4;stroke-opacity:1;stroke-dasharray:none"
           sodipodi:type="arc" />
      </g>
    </g>
  </g>
</svg>
