<?xml version="1.0" encoding="UTF-8" standalone="no"?>
<!-- Created with Inkscape (http://www.inkscape.org/) -->

<svg
   xmlns:dc="http://purl.org/dc/elements/1.1/"
   xmlns:cc="http://creativecommons.org/ns#"
   xmlns:rdf="http://www.w3.org/1999/02/22-rdf-syntax-ns#"
   xmlns:svg="http://www.w3.org/2000/svg"
   xmlns="http://www.w3.org/2000/svg"
   xmlns:sodipodi="http://sodipodi.sourceforge.net/DTD/sodipodi-0.dtd"
   xmlns:inkscape="http://www.inkscape.org/namespaces/inkscape"
   width="1766.1144"
   height="547.91998"
   id="svg4143"
   version="1.1"
   inkscape:version="0.48.3.1 r9886"
   sodipodi:docname="bricktronics_keytar_button_mounting_plate_v4.svg">
  <defs
     id="defs4145" />
  <sodipodi:namedview
     id="base"
     pagecolor="#ffffff"
     bordercolor="#666666"
     borderopacity="1.0"
     inkscape:pageopacity="0.0"
     inkscape:pageshadow="2"
     inkscape:zoom="0.5"
     inkscape:cx="892.53678"
     inkscape:cy="-47.803009"
     inkscape:document-units="px"
     inkscape:current-layer="layer1"
     showgrid="false"
     fit-margin-top="5"
     fit-margin-left="5"
     fit-margin-right="5"
     fit-margin-bottom="5"
     inkscape:window-width="1215"
     inkscape:window-height="1000"
     inkscape:window-x="65"
     inkscape:window-y="24"
     inkscape:window-maximized="1" />
  <metadata
     id="metadata4148">
    <rdf:RDF>
      <cc:Work
         rdf:about="">
        <dc:format>image/svg+xml</dc:format>
        <dc:type
           rdf:resource="http://purl.org/dc/dcmitype/StillImage" />
        <dc:title></dc:title>
      </cc:Work>
    </rdf:RDF>
  </metadata>
  <g
     inkscape:label="Layer 1"
     inkscape:groupmode="layer"
     id="layer1"
     transform="translate(0.5942849,-2.2021864)">
    <text
       xml:space="preserve"
       style="font-size:40px;font-style:italic;font-variant:normal;font-weight:bold;font-stretch:normal;line-height:125%;letter-spacing:0px;word-spacing:0px;fill:#000000;fill-opacity:1;stroke:none;font-family:URW Chancery L;-inkscape-font-specification:URW Chancery L Bold Italic"
       x="4.2857151"
       y="36.362186"
       id="text4151"
       sodipodi:linespacing="125%"><tspan
         sodipodi:role="line"
         x="4.2857151"
         y="36.362186"
         id="tspan4157"
         style="font-style:normal;font-variant:normal;font-weight:bold;font-stretch:normal;font-family:FreeSans;-inkscape-font-specification:FreeSans Bold Italic">Bricktronics keytar button mounting plate</tspan><tspan
         sodipodi:role="line"
         x="4.2857151"
         y="86.362183"
         style="font-style:normal;font-variant:normal;font-weight:bold;font-stretch:normal;font-family:FreeSans;-inkscape-font-specification:FreeSans Bold Italic"
         id="tspan4167">Version 4</tspan><tspan
         sodipodi:role="line"
         x="4.2857151"
         y="136.36218"
         style="font-style:normal;font-variant:normal;font-weight:bold;font-stretch:normal;font-family:FreeSans;-inkscape-font-specification:FreeSans Bold Italic"
         id="tspan4425">#000000 = Vector engrave (high speed)</tspan><tspan
         sodipodi:role="line"
         x="4.2857151"
         y="186.36218"
         style="font-style:normal;font-variant:normal;font-weight:bold;font-stretch:normal;font-family:FreeSans;-inkscape-font-specification:FreeSans Bold Italic"
         id="tspan4421">#FF0000 = Vector cut</tspan><tspan
         sodipodi:role="line"
         x="4.2857151"
         y="236.36218"
         style="font-style:normal;font-variant:normal;font-weight:bold;font-stretch:normal;font-family:FreeSans;-inkscape-font-specification:FreeSans Bold Italic"
         id="tspan4419" /><tspan
         sodipodi:role="line"
         x="4.2857151"
         y="286.36218"
         style="font-style:normal;font-variant:normal;font-weight:bold;font-stretch:normal;font-family:FreeSans;-inkscape-font-specification:FreeSans Bold Italic"
         id="tspan4181">Last updated: May 9, 2013</tspan><tspan
         sodipodi:role="line"
         x="4.2857151"
         y="336.36218"
         style="font-style:normal;font-variant:normal;font-weight:bold;font-stretch:normal;font-family:FreeSans;-inkscape-font-specification:FreeSans Bold Italic"
         id="tspan4175">Created by Matthew Beckler and Adam Wolf for Wayne and Layne, LLC</tspan><tspan
         sodipodi:role="line"
         x="4.2857151"
         y="386.36218"
         style="font-style:normal;font-variant:normal;font-weight:bold;font-stretch:normal;font-family:FreeSans;-inkscape-font-specification:FreeSans Bold Italic"
         id="tspan4163">http://www.wayneandlayne.com/bricktronics/</tspan><tspan
         sodipodi:role="line"
         x="4.2857151"
         y="436.36218"
         style="font-style:normal;font-variant:normal;font-weight:bold;font-stretch:normal;font-family:FreeSans;-inkscape-font-specification:FreeSans Bold Italic"
         id="tspan4173" /><tspan
         sodipodi:role="line"
         x="4.2857151"
         y="486.36218"
         style="font-style:normal;font-variant:normal;font-weight:bold;font-stretch:normal;font-family:FreeSans;-inkscape-font-specification:FreeSans Bold Italic"
         id="tspan4169">This work is licensed under a Creative Commons Attribution-ShareAlike 3.0 Unported License</tspan><tspan
         sodipodi:role="line"
         x="4.2857151"
         y="536.36218"
         style="font-style:normal;font-variant:normal;font-weight:bold;font-stretch:normal;font-family:FreeSans;-inkscape-font-specification:FreeSans Bold Italic"
         id="tspan4171">http://creativecommons.org/licenses/by-sa/3.0/</tspan></text>
    <rect
       style="fill:#0000ff;fill-opacity:1;stroke:none"
       id="rect4427"
       width="90"
       height="90"
       x="1572"
       y="72.362183" />
    <text
       sodipodi:linespacing="125%"
       id="text4937"
       y="212.36218"
       x="1489.5278"
       style="font-size:40px;font-style:italic;font-variant:normal;font-weight:bold;font-stretch:normal;line-height:125%;letter-spacing:0px;word-spacing:0px;fill:#000000;fill-opacity:1;stroke:none;font-family:URW Chancery L;-inkscape-font-specification:URW Chancery L Bold Italic"
       xml:space="preserve"><tspan
         style="font-style:normal;font-variant:normal;font-weight:bold;font-stretch:normal;font-family:FreeSans;-inkscape-font-specification:FreeSans Bold Italic"
         y="212.36218"
         x="1489.5278"
         sodipodi:role="line"
         id="tspan5055">1&quot; square for</tspan><tspan
         style="font-style:normal;font-variant:normal;font-weight:bold;font-stretch:normal;font-family:FreeSans;-inkscape-font-specification:FreeSans Bold Italic"
         y="262.36218"
         x="1489.5278"
         sodipodi:role="line"
         id="tspan5061">scaling factor</tspan><tspan
         style="font-style:normal;font-variant:normal;font-weight:bold;font-stretch:normal;font-family:FreeSans;-inkscape-font-specification:FreeSans Bold Italic"
         y="312.36218"
         x="1489.5278"
         sodipodi:role="line"
         id="tspan5057">confirmation</tspan></text>
    <g
       transform="matrix(0,-1,1,0,1176.7077,758.48438)"
       id="g5759">
      <g
         style="stroke:#ff0000;stroke-width:1;stroke-opacity:1"
         id="g10944"
         transform="matrix(0,1,-1,0,927.57339,-800.14947)">
        <path
           transform="matrix(1.0089036,0,0,1.0089036,400.13693,176.72747)"
           d="m 371.67326,140.79646 c 0,17.80484 -14.43367,32.23851 -32.23851,32.23851 -17.80483,0 -32.23851,-14.43367 -32.23851,-32.23851 0,-17.80483 14.43368,-32.23851 32.23851,-32.23851 17.80484,0 32.23851,14.43368 32.23851,32.23851 z"
           sodipodi:ry="32.23851"
           sodipodi:rx="32.23851"
           sodipodi:cy="140.79646"
           sodipodi:cx="339.43475"
           id="path4256"
           style="fill:none;stroke:#ff0000;stroke-width:0.03512037;stroke-linecap:butt;stroke-linejoin:miter;stroke-miterlimit:4;stroke-opacity:1;stroke-dasharray:none"
           sodipodi:type="arc" />
        <path
           sodipodi:type="arc"
           style="fill:none;stroke:#ff0000;stroke-width:0.13988096;stroke-miterlimit:4;stroke-opacity:1;stroke-dasharray:none"
           id="path7928"
           sodipodi:cx="154.28572"
           sodipodi:cy="198.07646"
           sodipodi:rx="33.57143"
           sodipodi:ry="33.57143"
           d="m 187.85715,198.07646 c 0,18.54099 -15.03044,33.57143 -33.57143,33.57143 -18.54099,0 -33.57143,-15.03044 -33.57143,-33.57143 0,-18.54099 15.03044,-33.57143 33.57143,-33.57143 18.54099,0 33.57143,15.03044 33.57143,33.57143 z"
           transform="matrix(0,-0.25330875,0.25330875,0,607.63359,429.15922)" />
        <path
           transform="matrix(0,-0.25330875,0.25330875,0,607.63359,400.81276)"
           d="m 187.85715,198.07646 c 0,18.54099 -15.03044,33.57143 -33.57143,33.57143 -18.54099,0 -33.57143,-15.03044 -33.57143,-33.57143 0,-18.54099 15.03044,-33.57143 33.57143,-33.57143 18.54099,0 33.57143,15.03044 33.57143,33.57143 z"
           sodipodi:ry="33.57143"
           sodipodi:rx="33.57143"
           sodipodi:cy="198.07646"
           sodipodi:cx="154.28572"
           id="path7930"
           style="fill:none;stroke:#ff0000;stroke-width:0.13988096;stroke-miterlimit:4;stroke-opacity:1;stroke-dasharray:none"
           sodipodi:type="arc" />
        <path
           sodipodi:type="arc"
           style="fill:none;stroke:#ff0000;stroke-width:0.13988096;stroke-miterlimit:4;stroke-opacity:1;stroke-dasharray:none"
           id="path7932"
           sodipodi:cx="154.28572"
           sodipodi:cy="198.07646"
           sodipodi:rx="33.57143"
           sodipodi:ry="33.57143"
           d="m 187.85715,198.07646 c 0,18.54099 -15.03044,33.57143 -33.57143,33.57143 -18.54099,0 -33.57143,-15.03044 -33.57143,-33.57143 0,-18.54099 15.03044,-33.57143 33.57143,-33.57143 18.54099,0 33.57143,15.03044 33.57143,33.57143 z"
           transform="matrix(0,-0.25330875,0.25330875,0,607.63359,372.46631)" />
        <path
           transform="matrix(0,-0.25330875,0.25330875,0,607.63359,344.11985)"
           d="m 187.85715,198.07646 c 0,18.54099 -15.03044,33.57143 -33.57143,33.57143 -18.54099,0 -33.57143,-15.03044 -33.57143,-33.57143 0,-18.54099 15.03044,-33.57143 33.57143,-33.57143 18.54099,0 33.57143,15.03044 33.57143,33.57143 z"
           sodipodi:ry="33.57143"
           sodipodi:rx="33.57143"
           sodipodi:cy="198.07646"
           sodipodi:cx="154.28572"
           id="path7934"
           style="fill:none;stroke:#ff0000;stroke-width:0.13988096;stroke-miterlimit:4;stroke-opacity:1;stroke-dasharray:none"
           sodipodi:type="arc" />
        <path
           transform="matrix(0,-0.25330875,0.25330875,0,607.63359,315.7734)"
           d="m 187.85715,198.07646 c 0,18.54099 -15.03044,33.57143 -33.57143,33.57143 -18.54099,0 -33.57143,-15.03044 -33.57143,-33.57143 0,-18.54099 15.03044,-33.57143 33.57143,-33.57143 18.54099,0 33.57143,15.03044 33.57143,33.57143 z"
           sodipodi:ry="33.57143"
           sodipodi:rx="33.57143"
           sodipodi:cy="198.07646"
           sodipodi:cx="154.28572"
           id="path7936"
           style="fill:none;stroke:#ff0000;stroke-width:0.13988096;stroke-miterlimit:4;stroke-opacity:1;stroke-dasharray:none"
           sodipodi:type="arc" />
        <path
           sodipodi:type="arc"
           style="fill:none;stroke:#ff0000;stroke-width:0.13988096;stroke-miterlimit:4;stroke-opacity:1;stroke-dasharray:none"
           id="path7938"
           sodipodi:cx="154.28572"
           sodipodi:cy="198.07646"
           sodipodi:rx="33.57143"
           sodipodi:ry="33.57143"
           d="m 187.85715,198.07646 c 0,18.54099 -15.03044,33.57143 -33.57143,33.57143 -18.54099,0 -33.57143,-15.03044 -33.57143,-33.57143 0,-18.54099 15.03044,-33.57143 33.57143,-33.57143 18.54099,0 33.57143,15.03044 33.57143,33.57143 z"
           transform="matrix(0,-0.25330875,0.25330875,0,607.63359,287.42694)" />
        <path
           transform="matrix(-0.25330875,1.0135064e-8,-1.0135064e-8,-0.25330875,866.96875,298.51952)"
           d="m 187.85715,198.07646 c 0,18.54099 -15.03044,33.57143 -33.57143,33.57143 -18.54099,0 -33.57143,-15.03044 -33.57143,-33.57143 0,-18.54099 15.03044,-33.57143 33.57143,-33.57143 18.54099,0 33.57143,15.03044 33.57143,33.57143 z"
           sodipodi:ry="33.57143"
           sodipodi:rx="33.57143"
           sodipodi:cy="198.07646"
           sodipodi:cx="154.28572"
           id="path7982"
           style="fill:none;stroke:#ff0000;stroke-width:0.13988096;stroke-miterlimit:4;stroke-opacity:1;stroke-dasharray:none"
           sodipodi:type="arc" />
        <path
           transform="matrix(-0.25330875,1.0135064e-8,-1.0135064e-8,-0.25330875,838.62231,298.51952)"
           d="m 187.85715,198.07646 c 0,18.54099 -15.03044,33.57143 -33.57143,33.57143 -18.54099,0 -33.57143,-15.03044 -33.57143,-33.57143 0,-18.54099 15.03044,-33.57143 33.57143,-33.57143 18.54099,0 33.57143,15.03044 33.57143,33.57143 z"
           sodipodi:ry="33.57143"
           sodipodi:rx="33.57143"
           sodipodi:cy="198.07646"
           sodipodi:cx="154.28572"
           id="path7984"
           style="fill:none;stroke:#ff0000;stroke-width:0.13988096;stroke-miterlimit:4;stroke-opacity:1;stroke-dasharray:none"
           sodipodi:type="arc" />
        <path
           sodipodi:type="arc"
           style="fill:none;stroke:#ff0000;stroke-width:0.13988096;stroke-miterlimit:4;stroke-opacity:1;stroke-dasharray:none"
           id="path7986"
           sodipodi:cx="154.28572"
           sodipodi:cy="198.07646"
           sodipodi:rx="33.57143"
           sodipodi:ry="33.57143"
           d="m 187.85715,198.07646 c 0,18.54099 -15.03044,33.57143 -33.57143,33.57143 -18.54099,0 -33.57143,-15.03044 -33.57143,-33.57143 0,-18.54099 15.03044,-33.57143 33.57143,-33.57143 18.54099,0 33.57143,15.03044 33.57143,33.57143 z"
           transform="matrix(-0.25330875,1.0135064e-8,-1.0135064e-8,-0.25330875,810.27583,298.51952)" />
        <path
           transform="matrix(-0.25330875,1.0135064e-8,-1.0135064e-8,-0.25330875,781.92939,298.51952)"
           d="m 187.85715,198.07646 c 0,18.54099 -15.03044,33.57143 -33.57143,33.57143 -18.54099,0 -33.57143,-15.03044 -33.57143,-33.57143 0,-18.54099 15.03044,-33.57143 33.57143,-33.57143 18.54099,0 33.57143,15.03044 33.57143,33.57143 z"
           sodipodi:ry="33.57143"
           sodipodi:rx="33.57143"
           sodipodi:cy="198.07646"
           sodipodi:cx="154.28572"
           id="path7988"
           style="fill:none;stroke:#ff0000;stroke-width:0.13988096;stroke-miterlimit:4;stroke-opacity:1;stroke-dasharray:none"
           sodipodi:type="arc" />
        <path
           sodipodi:type="arc"
           style="fill:none;stroke:#ff0000;stroke-width:0.13988096;stroke-miterlimit:4;stroke-opacity:1;stroke-dasharray:none"
           id="path7990"
           sodipodi:cx="154.28572"
           sodipodi:cy="198.07646"
           sodipodi:rx="33.57143"
           sodipodi:ry="33.57143"
           d="m 187.85715,198.07646 c 0,18.54099 -15.03044,33.57143 -33.57143,33.57143 -18.54099,0 -33.57143,-15.03044 -33.57143,-33.57143 0,-18.54099 15.03044,-33.57143 33.57143,-33.57143 18.54099,0 33.57143,15.03044 33.57143,33.57143 z"
           transform="matrix(-0.25330875,1.0135064e-8,-1.0135064e-8,-0.25330875,753.58295,298.51952)" />
        <path
           sodipodi:type="arc"
           style="fill:none;stroke:#ff0000;stroke-width:0.13988096;stroke-miterlimit:4;stroke-opacity:1;stroke-dasharray:none"
           id="path7992"
           sodipodi:cx="154.28572"
           sodipodi:cy="198.07646"
           sodipodi:rx="33.57143"
           sodipodi:ry="33.57143"
           d="m 187.85715,198.07646 c 0,18.54099 -15.03044,33.57143 -33.57143,33.57143 -18.54099,0 -33.57143,-15.03044 -33.57143,-33.57143 0,-18.54099 15.03044,-33.57143 33.57143,-33.57143 18.54099,0 33.57143,15.03044 33.57143,33.57143 z"
           transform="matrix(-0.25330875,1.0135064e-8,-1.0135064e-8,-0.25330875,725.23649,298.51952)" />
        <path
           sodipodi:type="arc"
           style="fill:none;stroke:#ff0000;stroke-width:0.13988096;stroke-miterlimit:4;stroke-opacity:1;stroke-dasharray:none"
           id="path8700"
           sodipodi:cx="154.28572"
           sodipodi:cy="198.07646"
           sodipodi:rx="33.57143"
           sodipodi:ry="33.57143"
           d="m 187.85715,198.07646 c 0,18.54099 -15.03044,33.57143 -33.57143,33.57143 -18.54099,0 -33.57143,-15.03044 -33.57143,-33.57143 0,-18.54099 15.03044,-33.57143 33.57143,-33.57143 18.54099,0 33.57143,15.03044 33.57143,33.57143 z"
           transform="matrix(0,0.25330875,-0.25330875,0,878.06133,237.60956)" />
        <path
           transform="matrix(0,0.25330875,-0.25330875,0,878.06133,265.95601)"
           d="m 187.85715,198.07646 c 0,18.54099 -15.03044,33.57143 -33.57143,33.57143 -18.54099,0 -33.57143,-15.03044 -33.57143,-33.57143 0,-18.54099 15.03044,-33.57143 33.57143,-33.57143 18.54099,0 33.57143,15.03044 33.57143,33.57143 z"
           sodipodi:ry="33.57143"
           sodipodi:rx="33.57143"
           sodipodi:cy="198.07646"
           sodipodi:cx="154.28572"
           id="path8702"
           style="fill:none;stroke:#ff0000;stroke-width:0.13988096;stroke-miterlimit:4;stroke-opacity:1;stroke-dasharray:none"
           sodipodi:type="arc" />
        <path
           sodipodi:type="arc"
           style="fill:none;stroke:#ff0000;stroke-width:0.13988096;stroke-miterlimit:4;stroke-opacity:1;stroke-dasharray:none"
           id="path8704"
           sodipodi:cx="154.28572"
           sodipodi:cy="198.07646"
           sodipodi:rx="33.57143"
           sodipodi:ry="33.57143"
           d="m 187.85715,198.07646 c 0,18.54099 -15.03044,33.57143 -33.57143,33.57143 -18.54099,0 -33.57143,-15.03044 -33.57143,-33.57143 0,-18.54099 15.03044,-33.57143 33.57143,-33.57143 18.54099,0 33.57143,15.03044 33.57143,33.57143 z"
           transform="matrix(0,0.25330875,-0.25330875,0,878.06133,294.30247)" />
        <path
           sodipodi:type="arc"
           style="fill:none;stroke:#ff0000;stroke-width:0.13988096;stroke-miterlimit:4;stroke-opacity:1;stroke-dasharray:none"
           id="path8706"
           sodipodi:cx="154.28572"
           sodipodi:cy="198.07646"
           sodipodi:rx="33.57143"
           sodipodi:ry="33.57143"
           d="m 187.85715,198.07646 c 0,18.54099 -15.03044,33.57143 -33.57143,33.57143 -18.54099,0 -33.57143,-15.03044 -33.57143,-33.57143 0,-18.54099 15.03044,-33.57143 33.57143,-33.57143 18.54099,0 33.57143,15.03044 33.57143,33.57143 z"
           transform="matrix(0,0.25330875,-0.25330875,0,878.06133,322.64892)" />
        <path
           transform="matrix(0,0.25330875,-0.25330875,0,878.06133,350.99538)"
           d="m 187.85715,198.07646 c 0,18.54099 -15.03044,33.57143 -33.57143,33.57143 -18.54099,0 -33.57143,-15.03044 -33.57143,-33.57143 0,-18.54099 15.03044,-33.57143 33.57143,-33.57143 18.54099,0 33.57143,15.03044 33.57143,33.57143 z"
           sodipodi:ry="33.57143"
           sodipodi:rx="33.57143"
           sodipodi:cy="198.07646"
           sodipodi:cx="154.28572"
           id="path8708"
           style="fill:none;stroke:#ff0000;stroke-width:0.13988096;stroke-miterlimit:4;stroke-opacity:1;stroke-dasharray:none"
           sodipodi:type="arc" />
        <path
           sodipodi:type="arc"
           style="fill:none;stroke:#ff0000;stroke-width:0.13988096;stroke-miterlimit:4;stroke-opacity:1;stroke-dasharray:none"
           id="path8712"
           sodipodi:cx="154.28572"
           sodipodi:cy="198.07646"
           sodipodi:rx="33.57143"
           sodipodi:ry="33.57143"
           d="m 187.85715,198.07646 c 0,18.54099 -15.03044,33.57143 -33.57143,33.57143 -18.54099,0 -33.57143,-15.03044 -33.57143,-33.57143 0,-18.54099 15.03044,-33.57143 33.57143,-33.57143 18.54099,0 33.57143,15.03044 33.57143,33.57143 z"
           transform="matrix(0.25330875,-1.0135064e-8,1.0135064e-8,0.25330875,647.07261,339.9028)" />
        <path
           transform="matrix(0.25330875,-1.0135064e-8,1.0135064e-8,0.25330875,675.41909,339.9028)"
           d="m 187.85715,198.07646 c 0,18.54099 -15.03044,33.57143 -33.57143,33.57143 -18.54099,0 -33.57143,-15.03044 -33.57143,-33.57143 0,-18.54099 15.03044,-33.57143 33.57143,-33.57143 18.54099,0 33.57143,15.03044 33.57143,33.57143 z"
           sodipodi:ry="33.57143"
           sodipodi:rx="33.57143"
           sodipodi:cy="198.07646"
           sodipodi:cx="154.28572"
           id="path8714"
           style="fill:none;stroke:#ff0000;stroke-width:0.13988096;stroke-miterlimit:4;stroke-opacity:1;stroke-dasharray:none"
           sodipodi:type="arc" />
        <path
           sodipodi:type="arc"
           style="fill:none;stroke:#ff0000;stroke-width:0.13988096;stroke-miterlimit:4;stroke-opacity:1;stroke-dasharray:none"
           id="path8716"
           sodipodi:cx="154.28572"
           sodipodi:cy="198.07646"
           sodipodi:rx="33.57143"
           sodipodi:ry="33.57143"
           d="m 187.85715,198.07646 c 0,18.54099 -15.03044,33.57143 -33.57143,33.57143 -18.54099,0 -33.57143,-15.03044 -33.57143,-33.57143 0,-18.54099 15.03044,-33.57143 33.57143,-33.57143 18.54099,0 33.57143,15.03044 33.57143,33.57143 z"
           transform="matrix(0.25330875,-1.0135064e-8,1.0135064e-8,0.25330875,703.76553,339.9028)" />
        <path
           transform="matrix(0.25330875,-1.0135064e-8,1.0135064e-8,0.25330875,732.11197,339.9028)"
           d="m 187.85715,198.07646 c 0,18.54099 -15.03044,33.57143 -33.57143,33.57143 -18.54099,0 -33.57143,-15.03044 -33.57143,-33.57143 0,-18.54099 15.03044,-33.57143 33.57143,-33.57143 18.54099,0 33.57143,15.03044 33.57143,33.57143 z"
           sodipodi:ry="33.57143"
           sodipodi:rx="33.57143"
           sodipodi:cy="198.07646"
           sodipodi:cx="154.28572"
           id="path8718"
           style="fill:none;stroke:#ff0000;stroke-width:0.13988096;stroke-miterlimit:4;stroke-opacity:1;stroke-dasharray:none"
           sodipodi:type="arc" />
        <path
           transform="matrix(0.25330875,-1.0135064e-8,1.0135064e-8,0.25330875,760.45843,339.9028)"
           d="m 187.85715,198.07646 c 0,18.54099 -15.03044,33.57143 -33.57143,33.57143 -18.54099,0 -33.57143,-15.03044 -33.57143,-33.57143 0,-18.54099 15.03044,-33.57143 33.57143,-33.57143 18.54099,0 33.57143,15.03044 33.57143,33.57143 z"
           sodipodi:ry="33.57143"
           sodipodi:rx="33.57143"
           sodipodi:cy="198.07646"
           sodipodi:cx="154.28572"
           id="path8720"
           style="fill:none;stroke:#ff0000;stroke-width:0.13988096;stroke-miterlimit:4;stroke-opacity:1;stroke-dasharray:none"
           sodipodi:type="arc" />
        <rect
           ry="8.5039349"
           rx="8.5039349"
           y="233.84109"
           x="643.30414"
           height="170.74016"
           width="199.08658"
           id="rect8783"
           style="fill:none;stroke:#ff0000;stroke-width:0.035;stroke-linecap:round;stroke-linejoin:round;stroke-miterlimit:4;stroke-opacity:1;stroke-dasharray:none;stroke-dashoffset:0" />
      </g>
      <g
         style="stroke:#000000;stroke-width:1;stroke-opacity:1"
         transform="matrix(0,1,-1,0,546.64655,-630.49957)"
         id="g5110">
        <path
           id="path4389-1"
           d="m 508.0338,-89.17313 c -2.98499,0 -5.40478,2.41981 -5.40478,5.40476 l 0,43.23808 c 0,2.985 2.41979,5.4048 5.40478,5.4048 l 21.61903,0 c 2.98497,0 5.40477,-2.4198 5.40477,-5.4048 l 0,-4.2741 0,-1.1306 0,-16.2143 c 0,-2.985 -2.4198,-5.40479 -5.40477,-5.40479 l -16.21428,0 0,-16.21429 c 0,-2.98495 -2.4198,-5.40476 -5.40475,-5.40476 z m 0,1.3512 c 2.23871,0 4.05356,1.81483 4.05356,4.05356 0,2.23873 -1.81485,4.05358 -4.05356,4.05358 -2.23874,0 -4.05359,-1.81485 -4.05359,-4.05358 0,-2.23873 1.81485,-4.05356 4.05359,-4.05356 z m 0,10.80951 c 2.23871,0 4.05356,1.81485 4.05356,4.05358 0,2.23872 -1.81485,4.05357 -4.05356,4.05357 -2.23874,0 -4.05359,-1.81485 -4.05359,-4.05357 0,-2.23873 1.81485,-4.05358 4.05359,-4.05358 z m 0,10.80953 c 2.23871,0 4.05356,1.8148 4.05356,4.0536 0,2.2387 -1.81485,4.0536 -4.05356,4.0536 -2.23874,0 -4.05359,-1.8149 -4.05359,-4.0536 0,-2.2388 1.81485,-4.0536 4.05359,-4.0536 z m 10.80951,0 c 2.23873,0 4.05356,1.8148 4.05356,4.0536 0,2.2387 -1.81483,4.0536 -4.05356,4.0536 -2.23873,0 -4.05356,-1.8149 -4.05356,-4.0536 0,-2.2388 1.81483,-4.0536 4.05356,-4.0536 z m 10.80952,0 c 2.23873,0 4.05358,1.8148 4.05358,4.0536 0,2.2387 -1.81485,4.0536 -4.05358,4.0536 -2.23872,0 -4.05357,-1.8149 -4.05357,-4.0536 0,-2.2388 1.81485,-4.0536 4.05357,-4.0536 z m -16.21428,9.4583 10.80952,0 0,10.8096 -10.80952,0 z m -5.40475,1.3512 c 2.23871,0 4.05356,1.8149 4.05356,4.0536 0,2.2387 -1.81485,4.0536 -4.05356,4.0536 -2.23874,0 -4.05359,-1.8149 -4.05359,-4.0536 0,-2.2387 1.81485,-4.0536 4.05359,-4.0536 z m 21.61903,0 c 2.23873,0 4.05358,1.8149 4.05358,4.0536 0,2.2387 -1.81485,4.0536 -4.05358,4.0536 -2.23872,0 -4.05357,-1.8149 -4.05357,-4.0536 0,-2.2387 1.81485,-4.0536 4.05357,-4.0536 z m -21.61903,10.8096 c 2.23871,0 4.05356,1.8148 4.05356,4.0535 0,2.2387 -1.81485,4.0536 -4.05356,4.0536 -2.23874,0 -4.05359,-1.8149 -4.05359,-4.0536 0,-2.2387 1.81485,-4.0535 4.05359,-4.0535 z m 10.80951,0 c 2.23873,0 4.05356,1.8148 4.05356,4.0535 0,2.2387 -1.81483,4.0536 -4.05356,4.0536 -2.23873,0 -4.05356,-1.8149 -4.05356,-4.0536 0,-2.2387 1.81483,-4.0535 4.05356,-4.0535 z m 10.80952,0 c 2.23873,0 4.05358,1.8148 4.05358,4.0535 0,2.2387 -1.81485,4.0536 -4.05358,4.0536 -2.23872,0 -4.05357,-1.8149 -4.05357,-4.0536 0,-2.2387 1.81485,-4.0535 4.05357,-4.0535 z"
           style="fill:none;stroke:#000000;stroke-width:0.035;stroke-miterlimit:4;stroke-opacity:1;stroke-dasharray:none"
           inkscape:connector-curvature="0"
           sodipodi:nodetypes="ssssssccsscssssssssssssssssssssssssssscccccsssssssssssssssssssssssss" />
        <path
           d="m 617.39834,-54.94022 -2.54,0 -4.92,-14.579999 3.02,0 3.24,10.979999 3.18,-10.979999 3.02,0 -5,14.579999"
           style="font-size:20px;font-style:normal;font-variant:normal;font-weight:bold;font-stretch:normal;line-height:125%;letter-spacing:0px;word-spacing:0px;fill:none;stroke:#000000;stroke-width:0.035;stroke-miterlimit:4;stroke-opacity:1;stroke-dasharray:none;font-family:FreeSans;-inkscape-font-specification:Sans Bold"
           id="path4475-8-9"
           inkscape:connector-curvature="0" />
        <path
           d="m 633.25771,-60.40022 0,2.32 -1.48,0 0,3.14 -2.8,0 0,-3.14 -5.68,0 0,-2.36 5.18,-8.679999 3.3,0 0,8.719999 1.48,0 m -4.28,0 0,-6.059999 -3.7,6.059999 3.7,0"
           style="font-size:20px;font-style:normal;font-variant:normal;font-weight:bold;font-stretch:normal;line-height:125%;letter-spacing:0px;word-spacing:0px;fill:none;stroke:#000000;stroke-width:0.035;stroke-miterlimit:4;stroke-opacity:1;stroke-dasharray:none;font-family:FreeSans;-inkscape-font-specification:Sans Bold"
           id="path4477-7-7"
           inkscape:connector-curvature="0" />
      </g>
    </g>
  </g>
</svg>
