<?xml version="1.0" encoding="UTF-8" standalone="no"?>
<!-- Created with Inkscape (http://www.inkscape.org/) -->

<svg
   xmlns:dc="http://purl.org/dc/elements/1.1/"
   xmlns:cc="http://creativecommons.org/ns#"
   xmlns:rdf="http://www.w3.org/1999/02/22-rdf-syntax-ns#"
   xmlns:svg="http://www.w3.org/2000/svg"
   xmlns="http://www.w3.org/2000/svg"
   xmlns:sodipodi="http://sodipodi.sourceforge.net/DTD/sodipodi-0.dtd"
   xmlns:inkscape="http://www.inkscape.org/namespaces/inkscape"
   width="1766.1144"
   height="547.91998"
   id="svg4143"
   version="1.1"
   inkscape:version="0.48.3.1 r9886"
   sodipodi:docname="New document 2">
  <defs
     id="defs4145" />
  <sodipodi:namedview
     id="base"
     pagecolor="#ffffff"
     bordercolor="#666666"
     borderopacity="1.0"
     inkscape:pageopacity="0.0"
     inkscape:pageshadow="2"
     inkscape:zoom="0.5"
     inkscape:cx="750.53678"
     inkscape:cy="-157.80301"
     inkscape:document-units="px"
     inkscape:current-layer="layer1"
     showgrid="false"
     fit-margin-top="5"
     fit-margin-left="5"
     fit-margin-right="5"
     fit-margin-bottom="5"
     inkscape:window-width="1215"
     inkscape:window-height="1000"
     inkscape:window-x="65"
     inkscape:window-y="24"
     inkscape:window-maximized="1" />
  <metadata
     id="metadata4148">
    <rdf:RDF>
      <cc:Work
         rdf:about="">
        <dc:format>image/svg+xml</dc:format>
        <dc:type
           rdf:resource="http://purl.org/dc/dcmitype/StillImage" />
        <dc:title></dc:title>
      </cc:Work>
    </rdf:RDF>
  </metadata>
  <g
     inkscape:label="Layer 1"
     inkscape:groupmode="layer"
     id="layer1"
     transform="translate(0.5942849,-2.2021864)">
    <text
       xml:space="preserve"
       style="font-size:40px;font-style:italic;font-variant:normal;font-weight:bold;font-stretch:normal;line-height:125%;letter-spacing:0px;word-spacing:0px;fill:#000000;fill-opacity:1;stroke:none;font-family:URW Chancery L;-inkscape-font-specification:URW Chancery L Bold Italic"
       x="4.2857151"
       y="36.362186"
       id="text4151"
       sodipodi:linespacing="125%"><tspan
         sodipodi:role="line"
         x="4.2857151"
         y="36.362186"
         id="tspan4157"
         style="font-style:normal;font-variant:normal;font-weight:bold;font-stretch:normal;font-family:FreeSans;-inkscape-font-specification:FreeSans Bold Italic">Bricktronics 6AA Battery Holder Mounting Plate</tspan><tspan
         sodipodi:role="line"
         x="4.2857151"
         y="86.362183"
         style="font-style:normal;font-variant:normal;font-weight:bold;font-stretch:normal;font-family:FreeSans;-inkscape-font-specification:FreeSans Bold Italic"
         id="tspan4167">Version 4</tspan><tspan
         sodipodi:role="line"
         x="4.2857151"
         y="136.36218"
         style="font-style:normal;font-variant:normal;font-weight:bold;font-stretch:normal;font-family:FreeSans;-inkscape-font-specification:FreeSans Bold Italic"
         id="tspan4425">#000000 = Vector engrave (high speed)</tspan><tspan
         sodipodi:role="line"
         x="4.2857151"
         y="186.36218"
         style="font-style:normal;font-variant:normal;font-weight:bold;font-stretch:normal;font-family:FreeSans;-inkscape-font-specification:FreeSans Bold Italic"
         id="tspan4421">#FF0000 = Vector cut</tspan><tspan
         sodipodi:role="line"
         x="4.2857151"
         y="236.36218"
         style="font-style:normal;font-variant:normal;font-weight:bold;font-stretch:normal;font-family:FreeSans;-inkscape-font-specification:FreeSans Bold Italic"
         id="tspan4419" /><tspan
         sodipodi:role="line"
         x="4.2857151"
         y="286.36218"
         style="font-style:normal;font-variant:normal;font-weight:bold;font-stretch:normal;font-family:FreeSans;-inkscape-font-specification:FreeSans Bold Italic"
         id="tspan4181">Last updated: May 9, 2013</tspan><tspan
         sodipodi:role="line"
         x="4.2857151"
         y="336.36218"
         style="font-style:normal;font-variant:normal;font-weight:bold;font-stretch:normal;font-family:FreeSans;-inkscape-font-specification:FreeSans Bold Italic"
         id="tspan4175">Created by Matthew Beckler and Adam Wolf for Wayne and Layne, LLC</tspan><tspan
         sodipodi:role="line"
         x="4.2857151"
         y="386.36218"
         style="font-style:normal;font-variant:normal;font-weight:bold;font-stretch:normal;font-family:FreeSans;-inkscape-font-specification:FreeSans Bold Italic"
         id="tspan4163">http://www.wayneandlayne.com/bricktronics/</tspan><tspan
         sodipodi:role="line"
         x="4.2857151"
         y="436.36218"
         style="font-style:normal;font-variant:normal;font-weight:bold;font-stretch:normal;font-family:FreeSans;-inkscape-font-specification:FreeSans Bold Italic"
         id="tspan4173" /><tspan
         sodipodi:role="line"
         x="4.2857151"
         y="486.36218"
         style="font-style:normal;font-variant:normal;font-weight:bold;font-stretch:normal;font-family:FreeSans;-inkscape-font-specification:FreeSans Bold Italic"
         id="tspan4169">This work is licensed under a Creative Commons Attribution-ShareAlike 3.0 Unported License</tspan><tspan
         sodipodi:role="line"
         x="4.2857151"
         y="536.36218"
         style="font-style:normal;font-variant:normal;font-weight:bold;font-stretch:normal;font-family:FreeSans;-inkscape-font-specification:FreeSans Bold Italic"
         id="tspan4171">http://creativecommons.org/licenses/by-sa/3.0/</tspan></text>
    <g
       transform="translate(427.65568,460.3015)"
       id="g4185">
      <g
         style="stroke:#ff0000;stroke-opacity:1"
         id="g11294"
         transform="translate(432.6373,-379.50154)">
        <path
           transform="matrix(0.25330875,1.0135064e-8,-1.0135064e-8,0.25330875,113.08732,124.88602)"
           d="m 187.85715,198.07646 c 0,18.54099 -15.03044,33.57143 -33.57143,33.57143 -18.54099,0 -33.57143,-15.03044 -33.57143,-33.57143 0,-18.54099 15.03044,-33.57143 33.57143,-33.57143 18.54099,0 33.57143,15.03044 33.57143,33.57143 z"
           sodipodi:ry="33.57143"
           sodipodi:rx="33.57143"
           sodipodi:cy="198.07646"
           sodipodi:cx="154.28572"
           id="path6030"
           style="fill:none;stroke:#ff0000;stroke-width:0.13988096;stroke-miterlimit:4;stroke-opacity:1;stroke-dasharray:none"
           sodipodi:type="arc" />
        <path
           sodipodi:type="arc"
           style="fill:none;stroke:#ff0000;stroke-width:0.13988096;stroke-miterlimit:4;stroke-opacity:1;stroke-dasharray:none"
           id="path6032"
           sodipodi:cx="154.28572"
           sodipodi:cy="198.07646"
           sodipodi:rx="33.57143"
           sodipodi:ry="33.57143"
           d="m 187.85715,198.07646 c 0,18.54099 -15.03044,33.57143 -33.57143,33.57143 -18.54099,0 -33.57143,-15.03044 -33.57143,-33.57143 0,-18.54099 15.03044,-33.57143 33.57143,-33.57143 18.54099,0 33.57143,15.03044 33.57143,33.57143 z"
           transform="matrix(0.25330875,1.0135064e-8,-1.0135064e-8,0.25330875,141.43382,124.88602)" />
        <path
           transform="matrix(0.25330875,1.0135064e-8,-1.0135064e-8,0.25330875,169.78022,124.88602)"
           d="m 187.85715,198.07646 c 0,18.54099 -15.03044,33.57143 -33.57143,33.57143 -18.54099,0 -33.57143,-15.03044 -33.57143,-33.57143 0,-18.54099 15.03044,-33.57143 33.57143,-33.57143 18.54099,0 33.57143,15.03044 33.57143,33.57143 z"
           sodipodi:ry="33.57143"
           sodipodi:rx="33.57143"
           sodipodi:cy="198.07646"
           sodipodi:cx="154.28572"
           id="path6034"
           style="fill:none;stroke:#ff0000;stroke-width:0.13988096;stroke-miterlimit:4;stroke-opacity:1;stroke-dasharray:none"
           sodipodi:type="arc" />
        <path
           transform="matrix(0.25330875,1.0135064e-8,-1.0135064e-8,0.25330875,198.12672,124.88602)"
           d="m 187.85715,198.07646 c 0,18.54099 -15.03044,33.57143 -33.57143,33.57143 -18.54099,0 -33.57143,-15.03044 -33.57143,-33.57143 0,-18.54099 15.03044,-33.57143 33.57143,-33.57143 18.54099,0 33.57143,15.03044 33.57143,33.57143 z"
           sodipodi:ry="33.57143"
           sodipodi:rx="33.57143"
           sodipodi:cy="198.07646"
           sodipodi:cx="154.28572"
           id="path6036"
           style="fill:none;stroke:#ff0000;stroke-width:0.13988096;stroke-miterlimit:4;stroke-opacity:1;stroke-dasharray:none"
           sodipodi:type="arc" />
        <path
           sodipodi:type="arc"
           style="fill:none;stroke:#ff0000;stroke-width:0.13988096;stroke-miterlimit:4;stroke-opacity:1;stroke-dasharray:none"
           id="path6038"
           sodipodi:cx="154.28572"
           sodipodi:cy="198.07646"
           sodipodi:rx="33.57143"
           sodipodi:ry="33.57143"
           d="m 187.85715,198.07646 c 0,18.54099 -15.03044,33.57143 -33.57143,33.57143 -18.54099,0 -33.57143,-15.03044 -33.57143,-33.57143 0,-18.54099 15.03044,-33.57143 33.57143,-33.57143 18.54099,0 33.57143,15.03044 33.57143,33.57143 z"
           transform="matrix(0.25330875,1.0135064e-8,-1.0135064e-8,0.25330875,226.47322,124.88602)" />
        <path
           transform="matrix(0.25330875,1.0135064e-8,-1.0135064e-8,0.25330875,254.81962,124.88602)"
           d="m 187.85715,198.07646 c 0,18.54099 -15.03044,33.57143 -33.57143,33.57143 -18.54099,0 -33.57143,-15.03044 -33.57143,-33.57143 0,-18.54099 15.03044,-33.57143 33.57143,-33.57143 18.54099,0 33.57143,15.03044 33.57143,33.57143 z"
           sodipodi:ry="33.57143"
           sodipodi:rx="33.57143"
           sodipodi:cy="198.07646"
           sodipodi:cx="154.28572"
           id="path6040"
           style="fill:none;stroke:#ff0000;stroke-width:0.13988096;stroke-miterlimit:4;stroke-opacity:1;stroke-dasharray:none"
           sodipodi:type="arc" />
        <path
           sodipodi:type="arc"
           style="fill:none;stroke:#ff0000;stroke-width:0.13988096;stroke-miterlimit:4;stroke-opacity:1;stroke-dasharray:none"
           id="path6042"
           sodipodi:cx="154.28572"
           sodipodi:cy="198.07646"
           sodipodi:rx="33.57143"
           sodipodi:ry="33.57143"
           d="m 187.85715,198.07646 c 0,18.54099 -15.03044,33.57143 -33.57143,33.57143 -18.54099,0 -33.57143,-15.03044 -33.57143,-33.57143 0,-18.54099 15.03044,-33.57143 33.57143,-33.57143 18.54099,0 33.57143,15.03044 33.57143,33.57143 z"
           transform="matrix(0.25330875,1.0135064e-8,-1.0135064e-8,0.25330875,113.08732,-73.53918)" />
        <path
           transform="matrix(0.25330875,1.0135064e-8,-1.0135064e-8,0.25330875,141.43382,-73.53918)"
           d="m 187.85715,198.07646 c 0,18.54099 -15.03044,33.57143 -33.57143,33.57143 -18.54099,0 -33.57143,-15.03044 -33.57143,-33.57143 0,-18.54099 15.03044,-33.57143 33.57143,-33.57143 18.54099,0 33.57143,15.03044 33.57143,33.57143 z"
           sodipodi:ry="33.57143"
           sodipodi:rx="33.57143"
           sodipodi:cy="198.07646"
           sodipodi:cx="154.28572"
           id="path6044"
           style="fill:none;stroke:#ff0000;stroke-width:0.13988096;stroke-miterlimit:4;stroke-opacity:1;stroke-dasharray:none"
           sodipodi:type="arc" />
        <path
           sodipodi:type="arc"
           style="fill:none;stroke:#ff0000;stroke-width:0.13988096;stroke-miterlimit:4;stroke-opacity:1;stroke-dasharray:none"
           id="path6046"
           sodipodi:cx="154.28572"
           sodipodi:cy="198.07646"
           sodipodi:rx="33.57143"
           sodipodi:ry="33.57143"
           d="m 187.85715,198.07646 c 0,18.54099 -15.03044,33.57143 -33.57143,33.57143 -18.54099,0 -33.57143,-15.03044 -33.57143,-33.57143 0,-18.54099 15.03044,-33.57143 33.57143,-33.57143 18.54099,0 33.57143,15.03044 33.57143,33.57143 z"
           transform="matrix(0.25330875,1.0135064e-8,-1.0135064e-8,0.25330875,169.78032,-73.53918)" />
        <path
           sodipodi:type="arc"
           style="fill:none;stroke:#ff0000;stroke-width:0.13988096;stroke-miterlimit:4;stroke-opacity:1;stroke-dasharray:none"
           id="path6048"
           sodipodi:cx="154.28572"
           sodipodi:cy="198.07646"
           sodipodi:rx="33.57143"
           sodipodi:ry="33.57143"
           d="m 187.85715,198.07646 c 0,18.54099 -15.03044,33.57143 -33.57143,33.57143 -18.54099,0 -33.57143,-15.03044 -33.57143,-33.57143 0,-18.54099 15.03044,-33.57143 33.57143,-33.57143 18.54099,0 33.57143,15.03044 33.57143,33.57143 z"
           transform="matrix(0.25330875,1.0135064e-8,-1.0135064e-8,0.25330875,198.12672,-73.53918)" />
        <path
           transform="matrix(0.25330875,1.0135064e-8,-1.0135064e-8,0.25330875,226.47322,-73.53918)"
           d="m 187.85715,198.07646 c 0,18.54099 -15.03044,33.57143 -33.57143,33.57143 -18.54099,0 -33.57143,-15.03044 -33.57143,-33.57143 0,-18.54099 15.03044,-33.57143 33.57143,-33.57143 18.54099,0 33.57143,15.03044 33.57143,33.57143 z"
           sodipodi:ry="33.57143"
           sodipodi:rx="33.57143"
           sodipodi:cy="198.07646"
           sodipodi:cx="154.28572"
           id="path6050"
           style="fill:none;stroke:#ff0000;stroke-width:0.13988096;stroke-miterlimit:4;stroke-opacity:1;stroke-dasharray:none"
           sodipodi:type="arc" />
        <path
           sodipodi:type="arc"
           style="fill:none;stroke:#ff0000;stroke-width:0.13988096;stroke-miterlimit:4;stroke-opacity:1;stroke-dasharray:none"
           id="path6052"
           sodipodi:cx="154.28572"
           sodipodi:cy="198.07646"
           sodipodi:rx="33.57143"
           sodipodi:ry="33.57143"
           d="m 187.85715,198.07646 c 0,18.54099 -15.03044,33.57143 -33.57143,33.57143 -18.54099,0 -33.57143,-15.03044 -33.57143,-33.57143 0,-18.54099 15.03044,-33.57143 33.57143,-33.57143 18.54099,0 33.57143,15.03044 33.57143,33.57143 z"
           transform="matrix(0.25330875,1.0135064e-8,-1.0135064e-8,0.25330875,254.81962,-73.53918)" />
        <path
           transform="matrix(0.25330875,1.0135064e-8,-1.0135064e-8,0.25330875,283.16612,-73.53918)"
           d="m 187.85715,198.07646 c 0,18.54099 -15.03044,33.57143 -33.57143,33.57143 -18.54099,0 -33.57143,-15.03044 -33.57143,-33.57143 0,-18.54099 15.03044,-33.57143 33.57143,-33.57143 18.54099,0 33.57143,15.03044 33.57143,33.57143 z"
           sodipodi:ry="33.57143"
           sodipodi:rx="33.57143"
           sodipodi:cy="198.07646"
           sodipodi:cx="154.28572"
           id="path6054"
           style="fill:none;stroke:#ff0000;stroke-width:0.13988096;stroke-miterlimit:4;stroke-opacity:1;stroke-dasharray:none"
           sodipodi:type="arc" />
        <path
           sodipodi:type="arc"
           style="fill:none;stroke:#ff0000;stroke-width:0.13988096;stroke-miterlimit:4;stroke-opacity:1;stroke-dasharray:none"
           id="path6056"
           sodipodi:cx="154.28572"
           sodipodi:cy="198.07646"
           sodipodi:rx="33.57143"
           sodipodi:ry="33.57143"
           d="m 187.85715,198.07646 c 0,18.54099 -15.03044,33.57143 -33.57143,33.57143 -18.54099,0 -33.57143,-15.03044 -33.57143,-33.57143 0,-18.54099 15.03044,-33.57143 33.57143,-33.57143 18.54099,0 33.57143,15.03044 33.57143,33.57143 z"
           transform="matrix(0.25330875,1.0135064e-8,-1.0135064e-8,0.25330875,311.51252,-73.53918)" />
        <path
           transform="matrix(0.25330875,1.0135064e-8,-1.0135064e-8,0.25330875,339.85902,-73.53918)"
           d="m 187.85715,198.07646 c 0,18.54099 -15.03044,33.57143 -33.57143,33.57143 -18.54099,0 -33.57143,-15.03044 -33.57143,-33.57143 0,-18.54099 15.03044,-33.57143 33.57143,-33.57143 18.54099,0 33.57143,15.03044 33.57143,33.57143 z"
           sodipodi:ry="33.57143"
           sodipodi:rx="33.57143"
           sodipodi:cy="198.07646"
           sodipodi:cx="154.28572"
           id="path6058"
           style="fill:none;stroke:#ff0000;stroke-width:0.13988096;stroke-miterlimit:4;stroke-opacity:1;stroke-dasharray:none"
           sodipodi:type="arc" />
        <path
           sodipodi:type="arc"
           style="fill:none;stroke:#ff0000;stroke-width:0.13988096;stroke-miterlimit:4;stroke-opacity:1;stroke-dasharray:none"
           id="path6060"
           sodipodi:cx="154.28572"
           sodipodi:cy="198.07646"
           sodipodi:rx="33.57143"
           sodipodi:ry="33.57143"
           d="m 187.85715,198.07646 c 0,18.54099 -15.03044,33.57143 -33.57143,33.57143 -18.54099,0 -33.57143,-15.03044 -33.57143,-33.57143 0,-18.54099 15.03044,-33.57143 33.57143,-33.57143 18.54099,0 33.57143,15.03044 33.57143,33.57143 z"
           transform="matrix(0.25330875,1.0135064e-8,-1.0135064e-8,0.25330875,368.20542,-73.53918)" />
        <path
           transform="matrix(0.25330875,1.0135064e-8,-1.0135064e-8,0.25330875,396.55192,-73.53918)"
           d="m 187.85715,198.07646 c 0,18.54099 -15.03044,33.57143 -33.57143,33.57143 -18.54099,0 -33.57143,-15.03044 -33.57143,-33.57143 0,-18.54099 15.03044,-33.57143 33.57143,-33.57143 18.54099,0 33.57143,15.03044 33.57143,33.57143 z"
           sodipodi:ry="33.57143"
           sodipodi:rx="33.57143"
           sodipodi:cy="198.07646"
           sodipodi:cx="154.28572"
           id="path6062"
           style="fill:none;stroke:#ff0000;stroke-width:0.13988096;stroke-miterlimit:4;stroke-opacity:1;stroke-dasharray:none"
           sodipodi:type="arc" />
        <path
           transform="matrix(0.25330875,1.0135064e-8,-1.0135064e-8,0.25330875,424.89842,-73.53918)"
           d="m 187.85715,198.07646 c 0,18.54099 -15.03044,33.57143 -33.57143,33.57143 -18.54099,0 -33.57143,-15.03044 -33.57143,-33.57143 0,-18.54099 15.03044,-33.57143 33.57143,-33.57143 18.54099,0 33.57143,15.03044 33.57143,33.57143 z"
           sodipodi:ry="33.57143"
           sodipodi:rx="33.57143"
           sodipodi:cy="198.07646"
           sodipodi:cx="154.28572"
           id="path6064"
           style="fill:none;stroke:#ff0000;stroke-width:0.13988096;stroke-miterlimit:4;stroke-opacity:1;stroke-dasharray:none"
           sodipodi:type="arc" />
        <path
           transform="matrix(0.25330875,1.0135064e-8,-1.0135064e-8,0.25330875,339.85902,124.88602)"
           d="m 187.85715,198.07646 c 0,18.54099 -15.03044,33.57143 -33.57143,33.57143 -18.54099,0 -33.57143,-15.03044 -33.57143,-33.57143 0,-18.54099 15.03044,-33.57143 33.57143,-33.57143 18.54099,0 33.57143,15.03044 33.57143,33.57143 z"
           sodipodi:ry="33.57143"
           sodipodi:rx="33.57143"
           sodipodi:cy="198.07646"
           sodipodi:cx="154.28572"
           id="path6066"
           style="fill:none;stroke:#ff0000;stroke-width:0.13988096;stroke-miterlimit:4;stroke-opacity:1;stroke-dasharray:none"
           sodipodi:type="arc" />
        <path
           sodipodi:type="arc"
           style="fill:none;stroke:#ff0000;stroke-width:0.13988096;stroke-miterlimit:4;stroke-opacity:1;stroke-dasharray:none"
           id="path6068"
           sodipodi:cx="154.28572"
           sodipodi:cy="198.07646"
           sodipodi:rx="33.57143"
           sodipodi:ry="33.57143"
           d="m 187.85715,198.07646 c 0,18.54099 -15.03044,33.57143 -33.57143,33.57143 -18.54099,0 -33.57143,-15.03044 -33.57143,-33.57143 0,-18.54099 15.03044,-33.57143 33.57143,-33.57143 18.54099,0 33.57143,15.03044 33.57143,33.57143 z"
           transform="matrix(0.25330875,1.0135064e-8,-1.0135064e-8,0.25330875,368.20552,124.88602)" />
        <path
           sodipodi:type="arc"
           style="fill:none;stroke:#ff0000;stroke-width:0.13988096;stroke-miterlimit:4;stroke-opacity:1;stroke-dasharray:none"
           id="path6070"
           sodipodi:cx="154.28572"
           sodipodi:cy="198.07646"
           sodipodi:rx="33.57143"
           sodipodi:ry="33.57143"
           d="m 187.85715,198.07646 c 0,18.54099 -15.03044,33.57143 -33.57143,33.57143 -18.54099,0 -33.57143,-15.03044 -33.57143,-33.57143 0,-18.54099 15.03044,-33.57143 33.57143,-33.57143 18.54099,0 33.57143,15.03044 33.57143,33.57143 z"
           transform="matrix(0.25330875,1.0135064e-8,-1.0135064e-8,0.25330875,396.55192,124.88602)" />
        <path
           transform="matrix(0.25330875,1.0135064e-8,-1.0135064e-8,0.25330875,424.89842,124.88602)"
           d="m 187.85715,198.07646 c 0,18.54099 -15.03044,33.57143 -33.57143,33.57143 -18.54099,0 -33.57143,-15.03044 -33.57143,-33.57143 0,-18.54099 15.03044,-33.57143 33.57143,-33.57143 18.54099,0 33.57143,15.03044 33.57143,33.57143 z"
           sodipodi:ry="33.57143"
           sodipodi:rx="33.57143"
           sodipodi:cy="198.07646"
           sodipodi:cx="154.28572"
           id="path6072"
           style="fill:none;stroke:#ff0000;stroke-width:0.13988096;stroke-miterlimit:4;stroke-opacity:1;stroke-dasharray:none"
           sodipodi:type="arc" />
        <path
           sodipodi:type="arc"
           style="fill:none;stroke:#ff0000;stroke-width:0.13988096;stroke-miterlimit:4;stroke-opacity:1;stroke-dasharray:none"
           id="path6076"
           sodipodi:cx="154.28572"
           sodipodi:cy="198.07646"
           sodipodi:rx="33.57143"
           sodipodi:ry="33.57143"
           d="m 187.85715,198.07646 c 0,18.54099 -15.03044,33.57143 -33.57143,33.57143 -18.54099,0 -33.57143,-15.03044 -33.57143,-33.57143 0,-18.54099 15.03044,-33.57143 33.57143,-33.57143 18.54099,0 33.57143,15.03044 33.57143,33.57143 z"
           transform="matrix(0.25330875,1.0135064e-8,-1.0135064e-8,0.25330875,311.51252,124.88602)" />
        <path
           transform="matrix(-1.0135064e-8,0.25330875,-0.25330875,-1.0135064e-8,372.42252,135.9786)"
           d="m 187.85715,198.07646 c 0,18.54099 -15.03044,33.57143 -33.57143,33.57143 -18.54099,0 -33.57143,-15.03044 -33.57143,-33.57143 0,-18.54099 15.03044,-33.57143 33.57143,-33.57143 18.54099,0 33.57143,15.03044 33.57143,33.57143 z"
           sodipodi:ry="33.57143"
           sodipodi:rx="33.57143"
           sodipodi:cy="198.07646"
           sodipodi:cx="154.28572"
           id="path6078"
           style="fill:none;stroke:#ff0000;stroke-width:0.13988096;stroke-miterlimit:4;stroke-opacity:1;stroke-dasharray:none"
           sodipodi:type="arc" />
        <path
           sodipodi:type="arc"
           style="fill:none;stroke:#ff0000;stroke-width:0.13988096;stroke-miterlimit:4;stroke-opacity:1;stroke-dasharray:none"
           id="path6080"
           sodipodi:cx="154.28572"
           sodipodi:cy="198.07646"
           sodipodi:rx="33.57143"
           sodipodi:ry="33.57143"
           d="m 187.85715,198.07646 c 0,18.54099 -15.03044,33.57143 -33.57143,33.57143 -18.54099,0 -33.57143,-15.03044 -33.57143,-33.57143 0,-18.54099 15.03044,-33.57143 33.57143,-33.57143 18.54099,0 33.57143,15.03044 33.57143,33.57143 z"
           transform="matrix(0.25330875,1.0135064e-8,-1.0135064e-8,0.25330875,509.93792,96.53956)" />
        <path
           transform="matrix(-1.0135064e-8,0.25330875,-0.25330875,-1.0135064e-8,599.19432,135.9786)"
           d="m 187.85715,198.07646 c 0,18.54099 -15.03044,33.57143 -33.57143,33.57143 -18.54099,0 -33.57143,-15.03044 -33.57143,-33.57143 0,-18.54099 15.03044,-33.57143 33.57143,-33.57143 18.54099,0 33.57143,15.03044 33.57143,33.57143 z"
           sodipodi:ry="33.57143"
           sodipodi:rx="33.57143"
           sodipodi:cy="198.07646"
           sodipodi:cx="154.28572"
           id="path6082"
           style="fill:none;stroke:#ff0000;stroke-width:0.13988096;stroke-miterlimit:4;stroke-opacity:1;stroke-dasharray:none"
           sodipodi:type="arc" />
        <path
           sodipodi:type="arc"
           style="fill:none;stroke:#ff0000;stroke-width:0.13988096;stroke-miterlimit:4;stroke-opacity:1;stroke-dasharray:none"
           id="path6084"
           sodipodi:cx="154.28572"
           sodipodi:cy="198.07646"
           sodipodi:rx="33.57143"
           sodipodi:ry="33.57143"
           d="m 187.85715,198.07646 c 0,18.54099 -15.03044,33.57143 -33.57143,33.57143 -18.54099,0 -33.57143,-15.03044 -33.57143,-33.57143 0,-18.54099 15.03044,-33.57143 33.57143,-33.57143 18.54099,0 33.57143,15.03044 33.57143,33.57143 z"
           transform="matrix(-1.0135064e-8,0.25330875,-0.25330875,-1.0135064e-8,542.50132,-62.4466)" />
        <path
           transform="matrix(-1.0135064e-8,0.25330875,-0.25330875,-1.0135064e-8,599.19432,-34.10014)"
           d="m 187.85715,198.07646 c 0,18.54099 -15.03044,33.57143 -33.57143,33.57143 -18.54099,0 -33.57143,-15.03044 -33.57143,-33.57143 0,-18.54099 15.03044,-33.57143 33.57143,-33.57143 18.54099,0 33.57143,15.03044 33.57143,33.57143 z"
           sodipodi:ry="33.57143"
           sodipodi:rx="33.57143"
           sodipodi:cy="198.07646"
           sodipodi:cx="154.28572"
           id="path6086"
           style="fill:none;stroke:#ff0000;stroke-width:0.13988096;stroke-miterlimit:4;stroke-opacity:1;stroke-dasharray:none"
           sodipodi:type="arc" />
        <path
           sodipodi:type="arc"
           style="fill:none;stroke:#ff0000;stroke-width:0.13988096;stroke-miterlimit:4;stroke-opacity:1;stroke-dasharray:none"
           id="path6088"
           sodipodi:cx="154.28572"
           sodipodi:cy="198.07646"
           sodipodi:rx="33.57143"
           sodipodi:ry="33.57143"
           d="m 187.85715,198.07646 c 0,18.54099 -15.03044,33.57143 -33.57143,33.57143 -18.54099,0 -33.57143,-15.03044 -33.57143,-33.57143 0,-18.54099 15.03044,-33.57143 33.57143,-33.57143 18.54099,0 33.57143,15.03044 33.57143,33.57143 z"
           transform="matrix(-1.0135064e-8,0.25330875,-0.25330875,-1.0135064e-8,599.19432,-5.75368)" />
        <path
           sodipodi:type="arc"
           style="fill:none;stroke:#ff0000;stroke-width:0.13988096;stroke-miterlimit:4;stroke-opacity:1;stroke-dasharray:none"
           id="path6090"
           sodipodi:cx="154.28572"
           sodipodi:cy="198.07646"
           sodipodi:rx="33.57143"
           sodipodi:ry="33.57143"
           d="m 187.85715,198.07646 c 0,18.54099 -15.03044,33.57143 -33.57143,33.57143 -18.54099,0 -33.57143,-15.03044 -33.57143,-33.57143 0,-18.54099 15.03044,-33.57143 33.57143,-33.57143 18.54099,0 33.57143,15.03044 33.57143,33.57143 z"
           transform="matrix(-1.0135064e-8,0.25330875,-0.25330875,-1.0135064e-8,599.19432,22.59278)" />
        <path
           transform="matrix(-1.0135064e-8,0.25330875,-0.25330875,-1.0135064e-8,599.19432,50.93925)"
           d="m 187.85715,198.07646 c 0,18.54099 -15.03044,33.57143 -33.57143,33.57143 -18.54099,0 -33.57143,-15.03044 -33.57143,-33.57143 0,-18.54099 15.03044,-33.57143 33.57143,-33.57143 18.54099,0 33.57143,15.03044 33.57143,33.57143 z"
           sodipodi:ry="33.57143"
           sodipodi:rx="33.57143"
           sodipodi:cy="198.07646"
           sodipodi:cx="154.28572"
           id="path6092"
           style="fill:none;stroke:#ff0000;stroke-width:0.13988096;stroke-miterlimit:4;stroke-opacity:1;stroke-dasharray:none"
           sodipodi:type="arc" />
        <path
           sodipodi:type="arc"
           style="fill:none;stroke:#ff0000;stroke-width:0.13988096;stroke-miterlimit:4;stroke-opacity:1;stroke-dasharray:none"
           id="path6094"
           sodipodi:cx="154.28572"
           sodipodi:cy="198.07646"
           sodipodi:rx="33.57143"
           sodipodi:ry="33.57143"
           d="m 187.85715,198.07646 c 0,18.54099 -15.03044,33.57143 -33.57143,33.57143 -18.54099,0 -33.57143,-15.03044 -33.57143,-33.57143 0,-18.54099 15.03044,-33.57143 33.57143,-33.57143 18.54099,0 33.57143,15.03044 33.57143,33.57143 z"
           transform="matrix(-1.0135064e-8,0.25330875,-0.25330875,-1.0135064e-8,599.19432,79.2857)" />
        <path
           transform="matrix(0.25330875,1.0135064e-8,-1.0135064e-8,0.25330875,84.74092,96.53956)"
           d="m 187.85715,198.07646 c 0,18.54099 -15.03044,33.57143 -33.57143,33.57143 -18.54099,0 -33.57143,-15.03044 -33.57143,-33.57143 0,-18.54099 15.03044,-33.57143 33.57143,-33.57143 18.54099,0 33.57143,15.03044 33.57143,33.57143 z"
           sodipodi:ry="33.57143"
           sodipodi:rx="33.57143"
           sodipodi:cy="198.07646"
           sodipodi:cx="154.28572"
           id="path6096"
           style="fill:none;stroke:#ff0000;stroke-width:0.13988096;stroke-miterlimit:4;stroke-opacity:1;stroke-dasharray:none"
           sodipodi:type="arc" />
        <path
           sodipodi:type="arc"
           style="fill:none;stroke:#ff0000;stroke-width:0.13988096;stroke-miterlimit:4;stroke-opacity:1;stroke-dasharray:none"
           id="path6100"
           sodipodi:cx="154.28572"
           sodipodi:cy="198.07646"
           sodipodi:rx="33.57143"
           sodipodi:ry="33.57143"
           d="m 187.85715,198.07646 c 0,18.54099 -15.03044,33.57143 -33.57143,33.57143 -18.54099,0 -33.57143,-15.03044 -33.57143,-33.57143 0,-18.54099 15.03044,-33.57143 33.57143,-33.57143 18.54099,0 33.57143,15.03044 33.57143,33.57143 z"
           transform="matrix(-1.0135064e-8,0.25330875,-0.25330875,-1.0135064e-8,173.99732,135.9786)" />
        <path
           transform="matrix(-1.0135064e-8,0.25330875,-0.25330875,-1.0135064e-8,173.99732,-62.4466)"
           d="m 187.85715,198.07646 c 0,18.54099 -15.03044,33.57143 -33.57143,33.57143 -18.54099,0 -33.57143,-15.03044 -33.57143,-33.57143 0,-18.54099 15.03044,-33.57143 33.57143,-33.57143 18.54099,0 33.57143,15.03044 33.57143,33.57143 z"
           sodipodi:ry="33.57143"
           sodipodi:rx="33.57143"
           sodipodi:cy="198.07646"
           sodipodi:cx="154.28572"
           id="path6102"
           style="fill:none;stroke:#ff0000;stroke-width:0.13988096;stroke-miterlimit:4;stroke-opacity:1;stroke-dasharray:none"
           sodipodi:type="arc" />
        <path
           sodipodi:type="arc"
           style="fill:none;stroke:#ff0000;stroke-width:0.13988096;stroke-miterlimit:4;stroke-opacity:1;stroke-dasharray:none"
           id="path6104"
           sodipodi:cx="154.28572"
           sodipodi:cy="198.07646"
           sodipodi:rx="33.57143"
           sodipodi:ry="33.57143"
           d="m 187.85715,198.07646 c 0,18.54099 -15.03044,33.57143 -33.57143,33.57143 -18.54099,0 -33.57143,-15.03044 -33.57143,-33.57143 0,-18.54099 15.03044,-33.57143 33.57143,-33.57143 18.54099,0 33.57143,15.03044 33.57143,33.57143 z"
           transform="matrix(-1.0135064e-8,0.25330875,-0.25330875,-1.0135064e-8,173.99732,-34.10014)" />
        <path
           transform="matrix(-1.0135064e-8,0.25330875,-0.25330875,-1.0135064e-8,173.99732,-5.75368)"
           d="m 187.85715,198.07646 c 0,18.54099 -15.03044,33.57143 -33.57143,33.57143 -18.54099,0 -33.57143,-15.03044 -33.57143,-33.57143 0,-18.54099 15.03044,-33.57143 33.57143,-33.57143 18.54099,0 33.57143,15.03044 33.57143,33.57143 z"
           sodipodi:ry="33.57143"
           sodipodi:rx="33.57143"
           sodipodi:cy="198.07646"
           sodipodi:cx="154.28572"
           id="path6106"
           style="fill:none;stroke:#ff0000;stroke-width:0.13988096;stroke-miterlimit:4;stroke-opacity:1;stroke-dasharray:none"
           sodipodi:type="arc" />
        <path
           transform="matrix(-1.0135064e-8,0.25330875,-0.25330875,-1.0135064e-8,173.99732,22.59278)"
           d="m 187.85715,198.07646 c 0,18.54099 -15.03044,33.57143 -33.57143,33.57143 -18.54099,0 -33.57143,-15.03044 -33.57143,-33.57143 0,-18.54099 15.03044,-33.57143 33.57143,-33.57143 18.54099,0 33.57143,15.03044 33.57143,33.57143 z"
           sodipodi:ry="33.57143"
           sodipodi:rx="33.57143"
           sodipodi:cy="198.07646"
           sodipodi:cx="154.28572"
           id="path6108"
           style="fill:none;stroke:#ff0000;stroke-width:0.13988096;stroke-miterlimit:4;stroke-opacity:1;stroke-dasharray:none"
           sodipodi:type="arc" />
        <path
           sodipodi:type="arc"
           style="fill:none;stroke:#ff0000;stroke-width:0.13988096;stroke-miterlimit:4;stroke-opacity:1;stroke-dasharray:none"
           id="path6110"
           sodipodi:cx="154.28572"
           sodipodi:cy="198.07646"
           sodipodi:rx="33.57143"
           sodipodi:ry="33.57143"
           d="m 187.85715,198.07646 c 0,18.54099 -15.03044,33.57143 -33.57143,33.57143 -18.54099,0 -33.57143,-15.03044 -33.57143,-33.57143 0,-18.54099 15.03044,-33.57143 33.57143,-33.57143 18.54099,0 33.57143,15.03044 33.57143,33.57143 z"
           transform="matrix(-1.0135064e-8,0.25330875,-0.25330875,-1.0135064e-8,173.99732,50.93925)" />
        <path
           transform="matrix(-1.0135064e-8,0.25330875,-0.25330875,-1.0135064e-8,173.99732,79.2857)"
           d="m 187.85715,198.07646 c 0,18.54099 -15.03044,33.57143 -33.57143,33.57143 -18.54099,0 -33.57143,-15.03044 -33.57143,-33.57143 0,-18.54099 15.03044,-33.57143 33.57143,-33.57143 18.54099,0 33.57143,15.03044 33.57143,33.57143 z"
           sodipodi:ry="33.57143"
           sodipodi:rx="33.57143"
           sodipodi:cy="198.07646"
           sodipodi:cx="154.28572"
           id="path6112"
           style="fill:none;stroke:#ff0000;stroke-width:0.13988096;stroke-miterlimit:4;stroke-opacity:1;stroke-dasharray:none"
           sodipodi:type="arc" />
        <path
           sodipodi:type="arc"
           style="fill:none;stroke:#ff0000;stroke-width:0.13988096;stroke-miterlimit:4;stroke-opacity:1;stroke-dasharray:none"
           id="path6262"
           sodipodi:cx="154.28572"
           sodipodi:cy="198.07646"
           sodipodi:rx="33.57143"
           sodipodi:ry="33.57143"
           d="m 187.85715,198.07646 c 0,18.54099 -15.03044,33.57143 -33.57143,33.57143 -18.54099,0 -33.57143,-15.03044 -33.57143,-33.57143 0,-18.54099 15.03044,-33.57143 33.57143,-33.57143 18.54099,0 33.57143,15.03044 33.57143,33.57143 z"
           transform="matrix(0.25330875,1.0135064e-8,-1.0135064e-8,0.25330875,481.59142,-73.53918)" />
        <path
           transform="matrix(-1.0135064e-8,0.25330875,-0.25330875,-1.0135064e-8,599.19432,-62.4466)"
           d="m 187.85715,198.07646 c 0,18.54099 -15.03044,33.57143 -33.57143,33.57143 -18.54099,0 -33.57143,-15.03044 -33.57143,-33.57143 0,-18.54099 15.03044,-33.57143 33.57143,-33.57143 18.54099,0 33.57143,15.03044 33.57143,33.57143 z"
           sodipodi:ry="33.57143"
           sodipodi:rx="33.57143"
           sodipodi:cy="198.07646"
           sodipodi:cx="154.28572"
           id="path6264"
           style="fill:none;stroke:#ff0000;stroke-width:0.13988096;stroke-miterlimit:4;stroke-opacity:1;stroke-dasharray:none"
           sodipodi:type="arc" />
        <path
           transform="matrix(0.25330875,1.0135064e-8,-1.0135064e-8,0.25330875,453.24492,124.88602)"
           d="m 187.85715,198.07646 c 0,18.54099 -15.03044,33.57143 -33.57143,33.57143 -18.54099,0 -33.57143,-15.03044 -33.57143,-33.57143 0,-18.54099 15.03044,-33.57143 33.57143,-33.57143 18.54099,0 33.57143,15.03044 33.57143,33.57143 z"
           sodipodi:ry="33.57143"
           sodipodi:rx="33.57143"
           sodipodi:cy="198.07646"
           sodipodi:cx="154.28572"
           id="path6269"
           style="fill:none;stroke:#ff0000;stroke-width:0.13988096;stroke-miterlimit:4;stroke-opacity:1;stroke-dasharray:none"
           sodipodi:type="arc" />
        <path
           sodipodi:type="arc"
           style="fill:none;stroke:#ff0000;stroke-width:0.13988096;stroke-miterlimit:4;stroke-opacity:1;stroke-dasharray:none"
           id="path6271"
           sodipodi:cx="154.28572"
           sodipodi:cy="198.07646"
           sodipodi:rx="33.57143"
           sodipodi:ry="33.57143"
           d="m 187.85715,198.07646 c 0,18.54099 -15.03044,33.57143 -33.57143,33.57143 -18.54099,0 -33.57143,-15.03044 -33.57143,-33.57143 0,-18.54099 15.03044,-33.57143 33.57143,-33.57143 18.54099,0 33.57143,15.03044 33.57143,33.57143 z"
           transform="matrix(0.25330875,1.0135064e-8,-1.0135064e-8,0.25330875,481.59142,124.88602)" />
        <rect
           rx="8.5039368"
           ry="8.5039368"
           transform="matrix(0,-1,-1,0,0,0)"
           y="-563.52374"
           x="-189.56445"
           height="454.20486"
           width="227.43306"
           id="rect10175"
           style="fill:none;stroke:#ff0000;stroke-width:0.035;stroke-linecap:round;stroke-linejoin:round;stroke-miterlimit:4;stroke-opacity:1;stroke-dasharray:none;stroke-dashoffset:0" />
        <path
           transform="matrix(2.2448037,0,0,2.2448037,68.728611,-745.89738)"
           sodipodi:type="arc"
           style="fill:none;stroke:#ff0000;stroke-width:0.01559156;stroke-linecap:round;stroke-linejoin:round;stroke-miterlimit:4;stroke-opacity:1;stroke-dasharray:none;stroke-dashoffset:0"
           id="path8320-9"
           sodipodi:cx="119.25381"
           sodipodi:cy="339.31631"
           sodipodi:rx="2.4961903"
           sodipodi:ry="2.4961903"
           d="m 121.75,339.31631 c 0,1.37861 -1.11759,2.4962 -2.49619,2.4962 -1.37861,0 -2.49619,-1.11759 -2.49619,-2.4962 0,-1.3786 1.11758,-2.49619 2.49619,-2.49619 1.3786,0 2.49619,1.11759 2.49619,2.49619 z" />
        <path
           d="m 121.75,339.31631 c 0,1.37861 -1.11759,2.4962 -2.49619,2.4962 -1.37861,0 -2.49619,-1.11759 -2.49619,-2.4962 0,-1.3786 1.11758,-2.49619 2.49619,-2.49619 1.3786,0 2.49619,1.11759 2.49619,2.49619 z"
           sodipodi:ry="2.4961903"
           sodipodi:rx="2.4961903"
           sodipodi:cy="339.31631"
           sodipodi:cx="119.25381"
           id="path11191"
           style="fill:none;stroke:#ff0000;stroke-width:0.01559156;stroke-linecap:round;stroke-linejoin:round;stroke-miterlimit:4;stroke-opacity:1;stroke-dasharray:none;stroke-dashoffset:0"
           sodipodi:type="arc"
           transform="matrix(2.2448037,0,0,2.2448037,68.728611,-625.42494)" />
      </g>
      <g
         style="stroke:#000000;stroke-opacity:1"
         transform="translate(-245.43677,-126.30865)"
         id="g4926">
        <path
           style="font-size:medium;font-style:normal;font-variant:normal;font-weight:normal;font-stretch:normal;text-indent:0;text-align:start;text-decoration:none;line-height:normal;letter-spacing:normal;word-spacing:normal;text-transform:none;direction:ltr;block-progression:tb;writing-mode:lr-tb;text-anchor:start;baseline-shift:baseline;color:#000000;fill:none;stroke:#000000;stroke-width:0.035;stroke-miterlimit:4;stroke-opacity:1;stroke-dasharray:none;marker:none;visibility:visible;display:inline;overflow:visible;enable-background:accumulate;font-family:Sans;-inkscape-font-specification:Sans"
           d="m 822.79282,-264.16164 c -3.0472,0 -5.53125,2.48551 -5.53125,5.53125 l 0,162.9375 c 0,3.04574 2.48405,5.53125 5.53125,5.53125 l 383.40628,0 c 3.0472,0 5.5625,-2.48551 5.5625,-5.53125 l 0,-162.9375 c 0,-3.04574 -2.5153,-5.53125 -5.5625,-5.53125 l -383.40628,0 z m 0,3 383.40628,0 c 1.4402,0 2.5625,1.09999 2.5625,2.53125 l 0,162.9375 c 0,1.43126 -1.1223,2.53125 -2.5625,2.53125 l -383.40628,0 c -1.4402,0 -2.53125,-1.09999 -2.53125,-2.53125 l 0,-162.9375 c 0,-1.43126 1.09105,-2.53125 2.53125,-2.53125 z"
           id="rect3092"
           inkscape:connector-curvature="0" />
        <path
           id="path4389-1-3"
           d="m 831.49357,-151.76436 c -2.985,0 -5.4048,2.41981 -5.4048,5.40476 l 0,43.23808 c 0,2.985 2.4198,5.4048 5.4048,5.4048 l 21.619,0 c 2.985,0 5.4048,-2.4198 5.4048,-5.4048 l 0,-4.2741 0,-1.1306 0,-16.2143 c 0,-2.985 -2.4198,-5.40479 -5.4048,-5.40479 l -16.2142,0 0,-16.21429 c 0,-2.98495 -2.4198,-5.40476 -5.4048,-5.40476 z m 0,1.3512 c 2.2387,0 4.0536,1.81483 4.0536,4.05356 0,2.23873 -1.8149,4.05358 -4.0536,4.05358 -2.2387,0 -4.0536,-1.81485 -4.0536,-4.05358 0,-2.23873 1.8149,-4.05356 4.0536,-4.05356 z m 0,10.80951 c 2.2387,0 4.0536,1.81485 4.0536,4.05358 0,2.23872 -1.8149,4.05357 -4.0536,4.05357 -2.2387,0 -4.0536,-1.81485 -4.0536,-4.05357 0,-2.23873 1.8149,-4.05358 4.0536,-4.05358 z m 0,10.80953 c 2.2387,0 4.0536,1.8148 4.0536,4.0536 0,2.2387 -1.8149,4.0536 -4.0536,4.0536 -2.2387,0 -4.0536,-1.8149 -4.0536,-4.0536 0,-2.2388 1.8149,-4.0536 4.0536,-4.0536 z m 10.8095,0 c 2.2388,0 4.0536,1.8148 4.0536,4.0536 0,2.2387 -1.8148,4.0536 -4.0536,4.0536 -2.2387,0 -4.0535,-1.8149 -4.0535,-4.0536 0,-2.2388 1.8148,-4.0536 4.0535,-4.0536 z m 10.8095,0 c 2.2388,0 4.0536,1.8148 4.0536,4.0536 0,2.2387 -1.8148,4.0536 -4.0536,4.0536 -2.2387,0 -4.0535,-1.8149 -4.0535,-4.0536 0,-2.2388 1.8148,-4.0536 4.0535,-4.0536 z m -16.2142,9.4583 10.8095,0 0,10.8096 -10.8095,0 z m -5.4048,1.3512 c 2.2387,0 4.0536,1.8149 4.0536,4.0536 0,2.2387 -1.8149,4.0536 -4.0536,4.0536 -2.2387,0 -4.0536,-1.8149 -4.0536,-4.0536 0,-2.2387 1.8149,-4.0536 4.0536,-4.0536 z m 21.619,0 c 2.2388,0 4.0536,1.8149 4.0536,4.0536 0,2.2387 -1.8148,4.0536 -4.0536,4.0536 -2.2387,0 -4.0535,-1.8149 -4.0535,-4.0536 0,-2.2387 1.8148,-4.0536 4.0535,-4.0536 z m -21.619,10.8096 c 2.2387,0 4.0536,1.8148 4.0536,4.0535 0,2.2387 -1.8149,4.0536 -4.0536,4.0536 -2.2387,0 -4.0536,-1.8149 -4.0536,-4.0536 0,-2.2387 1.8149,-4.0535 4.0536,-4.0535 z m 10.8095,0 c 2.2388,0 4.0536,1.8148 4.0536,4.0535 0,2.2387 -1.8148,4.0536 -4.0536,4.0536 -2.2387,0 -4.0535,-1.8149 -4.0535,-4.0536 0,-2.2387 1.8148,-4.0535 4.0535,-4.0535 z m 10.8095,0 c 2.2388,0 4.0536,1.8148 4.0536,4.0535 0,2.2387 -1.8148,4.0536 -4.0536,4.0536 -2.2387,0 -4.0535,-1.8149 -4.0535,-4.0536 0,-2.2387 1.8148,-4.0535 4.0535,-4.0535 z"
           style="fill:none;stroke:#000000;stroke-width:0.035;stroke-miterlimit:4;stroke-opacity:1;stroke-dasharray:none"
           inkscape:connector-curvature="0"
           sodipodi:nodetypes="ssssssccsscssssssssssssssssssssssssssscccccsssssssssssssssssssssssss" />
        <path
           d="m 873.21587,-99.828499 -2.54,0 -4.92,-14.580001 3.02,0 3.24,10.98 3.18,-10.98 3.02,0 -5,14.580001"
           style="font-size:20px;font-style:normal;font-variant:normal;font-weight:bold;font-stretch:normal;line-height:125%;letter-spacing:0px;word-spacing:0px;fill:none;stroke:#000000;stroke-width:0.035;stroke-miterlimit:4;stroke-opacity:1;stroke-dasharray:none;font-family:FreeSans;-inkscape-font-specification:Sans Bold"
           id="path4475"
           inkscape:connector-curvature="0" />
        <path
           d="m 889.07524,-105.2885 0,2.32 -1.48,0 0,3.140001 -2.8,0 0,-3.140001 -5.68,0 0,-2.36 5.18,-8.68 3.3,0 0,8.72 1.48,0 m -4.28,0 0,-6.06 -3.7,6.06 3.7,0"
           style="font-size:20px;font-style:normal;font-variant:normal;font-weight:bold;font-stretch:normal;line-height:125%;letter-spacing:0px;word-spacing:0px;fill:none;stroke:#000000;stroke-width:0.035;stroke-miterlimit:4;stroke-opacity:1;stroke-dasharray:none;font-family:FreeSans;-inkscape-font-specification:Sans Bold"
           id="path4477"
           inkscape:connector-curvature="0" />
      </g>
    </g>
    <rect
       style="fill:#0000ff;fill-opacity:1;stroke:none"
       id="rect4427"
       width="90"
       height="90"
       x="1572"
       y="72.362183" />
    <text
       sodipodi:linespacing="125%"
       id="text4937"
       y="212.36218"
       x="1489.5278"
       style="font-size:40px;font-style:italic;font-variant:normal;font-weight:bold;font-stretch:normal;line-height:125%;letter-spacing:0px;word-spacing:0px;fill:#000000;fill-opacity:1;stroke:none;font-family:URW Chancery L;-inkscape-font-specification:URW Chancery L Bold Italic"
       xml:space="preserve"><tspan
         style="font-style:normal;font-variant:normal;font-weight:bold;font-stretch:normal;font-family:FreeSans;-inkscape-font-specification:FreeSans Bold Italic"
         y="212.36218"
         x="1489.5278"
         sodipodi:role="line"
         id="tspan5055">1&quot; square for</tspan><tspan
         style="font-style:normal;font-variant:normal;font-weight:bold;font-stretch:normal;font-family:FreeSans;-inkscape-font-specification:FreeSans Bold Italic"
         y="262.36218"
         x="1489.5278"
         sodipodi:role="line"
         id="tspan5061">scaling factor</tspan><tspan
         style="font-style:normal;font-variant:normal;font-weight:bold;font-stretch:normal;font-family:FreeSans;-inkscape-font-specification:FreeSans Bold Italic"
         y="312.36218"
         x="1489.5278"
         sodipodi:role="line"
         id="tspan5057">confirmation</tspan></text>
  </g>
</svg>
